<svg id="Layer_1" data-name="Layer 1" xmlns="http://www.w3.org/2000/svg" xmlns:xlink="http://www.w3.org/1999/xlink" viewBox="0 0 1400 800"><defs><style>.cls-1{fill:#0095da;}.cls-2{fill:url(#radial-gradient);}.cls-3{fill:#00a7e5;}.cls-4{fill:url(#linear-gradient);}.cls-5{fill:url(#linear-gradient-2);}.cls-6{fill:url(#linear-gradient-3);}.cls-7{fill:url(#linear-gradient-4);}.cls-8{fill:url(#linear-gradient-5);}.cls-9{fill:url(#linear-gradient-6);}.cls-10{fill:url(#linear-gradient-7);}.cls-11{fill:url(#linear-gradient-8);}.cls-12{fill:url(#linear-gradient-9);}.cls-13{fill:url(#linear-gradient-10);}.cls-14{fill:url(#linear-gradient-11);}.cls-15{fill:url(#linear-gradient-12);}.cls-16{fill:url(#linear-gradient-13);}.cls-17{fill:url(#linear-gradient-14);}.cls-18{fill:url(#linear-gradient-15);}.cls-19{fill:url(#linear-gradient-16);}.cls-20{fill:url(#linear-gradient-17);}.cls-21{fill:url(#linear-gradient-18);}.cls-22{fill:url(#linear-gradient-19);}.cls-23{fill:url(#linear-gradient-20);}.cls-24{fill:url(#linear-gradient-21);}.cls-25{fill:url(#linear-gradient-22);}.cls-26{fill:url(#linear-gradient-23);}.cls-27{fill:url(#linear-gradient-24);}.cls-28{fill:url(#linear-gradient-25);}.cls-29{fill:url(#linear-gradient-26);}.cls-30{fill:url(#linear-gradient-27);}.cls-31{fill:#e0def0;}.cls-32{fill:url(#linear-gradient-28);}.cls-33{fill:url(#linear-gradient-29);}.cls-34{fill:url(#linear-gradient-30);}.cls-35{fill:url(#linear-gradient-31);}.cls-36{fill:url(#linear-gradient-32);}.cls-37{fill:url(#linear-gradient-33);}.cls-38{fill:url(#linear-gradient-34);}.cls-39{fill:url(#linear-gradient-35);}.cls-40{fill:url(#linear-gradient-36);}.cls-41{fill:url(#linear-gradient-37);}.cls-42{fill:url(#linear-gradient-38);}.cls-43{fill:url(#linear-gradient-39);}.cls-44{fill:url(#linear-gradient-40);}.cls-45{fill:url(#linear-gradient-41);}.cls-46{fill:url(#linear-gradient-42);}.cls-47{fill:url(#linear-gradient-43);}.cls-48{fill:url(#linear-gradient-44);}.cls-49,.cls-56,.cls-63,.cls-70{opacity:0;}.cls-49{fill:url(#linear-gradient-45);}.cls-50,.cls-57,.cls-64,.cls-71{opacity:0.17;}.cls-50{fill:url(#linear-gradient-46);}.cls-51,.cls-58,.cls-65,.cls-72{opacity:0.33;}.cls-51{fill:url(#linear-gradient-47);}.cls-52,.cls-59,.cls-66,.cls-73{opacity:0.5;}.cls-52{fill:url(#linear-gradient-48);}.cls-53,.cls-60,.cls-67,.cls-74{opacity:0.67;}.cls-53{fill:url(#linear-gradient-49);}.cls-54,.cls-61,.cls-68,.cls-75{opacity:0.83;}.cls-54{fill:url(#linear-gradient-50);}.cls-55{fill:url(#linear-gradient-51);}.cls-56{fill:url(#linear-gradient-52);}.cls-57{fill:url(#linear-gradient-53);}.cls-58{fill:url(#linear-gradient-54);}.cls-59{fill:url(#linear-gradient-55);}.cls-60{fill:url(#linear-gradient-56);}.cls-61{fill:url(#linear-gradient-57);}.cls-62{fill:url(#linear-gradient-58);}.cls-63{fill:url(#linear-gradient-59);}.cls-64{fill:url(#linear-gradient-60);}.cls-65{fill:url(#linear-gradient-61);}.cls-66{fill:url(#linear-gradient-62);}.cls-67{fill:url(#linear-gradient-63);}.cls-68{fill:url(#linear-gradient-64);}.cls-69{fill:url(#linear-gradient-65);}.cls-70{fill:url(#linear-gradient-66);}.cls-71{fill:url(#linear-gradient-67);}.cls-72{fill:url(#linear-gradient-68);}.cls-73{fill:url(#linear-gradient-69);}.cls-74{fill:url(#linear-gradient-70);}.cls-75{fill:url(#linear-gradient-71);}.cls-76{fill:url(#linear-gradient-72);}.cls-77{fill:url(#linear-gradient-73);}</style><radialGradient id="radial-gradient" cx="404.6" cy="442.09" r="614.22" gradientUnits="userSpaceOnUse"><stop offset="0" stop-color="#00aeef"/><stop offset="0.74" stop-color="#008dd2"/></radialGradient><linearGradient id="linear-gradient" x1="693.61" y1="45.96" x2="891.61" y2="435.96" gradientTransform="matrix(-1, 0, 0, 1, 1362.41, 0)" gradientUnits="userSpaceOnUse"><stop offset="0" stop-color="#3ec7f4"/><stop offset="0.26" stop-color="#41c8f4"/><stop offset="0.46" stop-color="#4bcaf5"/><stop offset="0.64" stop-color="#5bcdf5"/><stop offset="0.81" stop-color="#72d2f6"/><stop offset="0.97" stop-color="#90d8f8"/><stop offset="1" stop-color="#97daf8"/></linearGradient><linearGradient id="linear-gradient-2" x1="1078.92" y1="326.5" x2="1086.65" y2="334.23" gradientTransform="matrix(-1, 0, 0, 1, 1362.41, 0)" gradientUnits="userSpaceOnUse"><stop offset="0" stop-color="#fbd7e7"/><stop offset="0.17" stop-color="#f8d7e7"/><stop offset="0.31" stop-color="#eed5e7"/><stop offset="0.42" stop-color="#ded2e8"/><stop offset="0.54" stop-color="#c7cee9"/><stop offset="0.64" stop-color="#a9caea"/><stop offset="0.74" stop-color="#84c4eb"/><stop offset="0.84" stop-color="#59bcec"/><stop offset="0.93" stop-color="#28b4ee"/><stop offset="1" stop-color="#00aeef"/></linearGradient><linearGradient id="linear-gradient-3" x1="794.82" y1="438.95" x2="1118.71" y2="438.95" gradientTransform="matrix(-1, 0, 0, 1, 1362.41, 0)" gradientUnits="userSpaceOnUse"><stop offset="0" stop-color="#3ec7f4"/><stop offset="0.3" stop-color="#3bc6f4"/><stop offset="0.53" stop-color="#31c2f3"/><stop offset="0.74" stop-color="#21bbf2"/><stop offset="0.93" stop-color="#0ab2f0"/><stop offset="1" stop-color="#00aeef"/></linearGradient><linearGradient id="linear-gradient-4" x1="848.8" y1="438.95" x2="1064.74" y2="438.95" gradientTransform="matrix(-1, 0, 0, 1, 1362.41, 0)" gradientUnits="userSpaceOnUse"><stop offset="0" stop-color="#3ec7f4"/><stop offset="0.3" stop-color="#3bc4f3"/><stop offset="0.53" stop-color="#31bcee"/><stop offset="0.74" stop-color="#21afe7"/><stop offset="0.93" stop-color="#0a9bdd"/><stop offset="1" stop-color="#0093d8"/></linearGradient><linearGradient id="linear-gradient-5" x1="776.92" y1="302.5" x2="788.52" y2="314.1" xlink:href="#linear-gradient-2"/><linearGradient id="linear-gradient-6" x1="837.92" y1="78.5" x2="845.65" y2="86.23" xlink:href="#linear-gradient-2"/><linearGradient id="linear-gradient-7" x1="911.42" y1="620" x2="928.81" y2="637.4" xlink:href="#linear-gradient-2"/><linearGradient id="linear-gradient-8" x1="648.49" y1="578.25" x2="675.22" y2="604.99" xlink:href="#linear-gradient-2"/><linearGradient id="linear-gradient-9" x1="121.55" y1="364.6" x2="152.8" y2="395.85" xlink:href="#linear-gradient-2"/><linearGradient id="linear-gradient-10" x1="1085.08" y1="188.67" x2="1135.98" y2="239.57" xlink:href="#linear-gradient-2"/><linearGradient id="linear-gradient-11" x1="689.92" y1="337.5" x2="697.65" y2="345.23" xlink:href="#linear-gradient-2"/><linearGradient id="linear-gradient-12" x1="899.25" y1="417.83" x2="904.41" y2="422.99" gradientTransform="matrix(-1, 0, 0, 1, 1362.41, 0)" gradientUnits="userSpaceOnUse"><stop offset="0" stop-color="#71d0f6"/><stop offset="0.24" stop-color="#6ecff6"/><stop offset="0.42" stop-color="#64ccf5"/><stop offset="0.58" stop-color="#54c7f4"/><stop offset="0.74" stop-color="#3dc0f3"/><stop offset="0.88" stop-color="#1fb7f1"/><stop offset="1" stop-color="#00aeef"/></linearGradient><linearGradient id="linear-gradient-13" x1="834.42" y1="423" x2="844.08" y2="432.66" gradientTransform="matrix(-1, 0, 0, 1, 1362.41, 0)" gradientUnits="userSpaceOnUse"><stop offset="0" stop-color="#d4effc"/><stop offset="0.19" stop-color="#d1eefc"/><stop offset="0.33" stop-color="#c7ebfb"/><stop offset="0.45" stop-color="#b7e6fa"/><stop offset="0.57" stop-color="#a0dff9"/><stop offset="0.69" stop-color="#82d6f7"/><stop offset="0.79" stop-color="#5dcbf5"/><stop offset="0.9" stop-color="#33bef2"/><stop offset="1" stop-color="#02afef"/><stop offset="1" stop-color="#00aeef"/></linearGradient><linearGradient id="linear-gradient-14" x1="590.99" y1="253.76" x2="607.1" y2="269.87" xlink:href="#linear-gradient-2"/><linearGradient id="linear-gradient-15" x1="766.42" y1="453" x2="777.05" y2="463.63" xlink:href="#linear-gradient-2"/><linearGradient id="linear-gradient-16" x1="765.9" y1="9.26" x2="963.9" y2="399.26" xlink:href="#linear-gradient"/><linearGradient id="linear-gradient-17" x1="547.17" y1="0.92" x2="571.17" y2="86.92" xlink:href="#linear-gradient-3"/><linearGradient id="linear-gradient-18" x1="993.79" y1="566.38" x2="1004.91" y2="577.49" xlink:href="#linear-gradient-2"/><linearGradient id="linear-gradient-19" x1="316.46" y1="654.48" x2="361.86" y2="609.08" gradientTransform="matrix(-0.85, -0.53, 0.53, -0.85, 287.87, 1351.92)" gradientUnits="userSpaceOnUse"><stop offset="0" stop-color="#00aeef"/><stop offset="0.21" stop-color="#48c5f4"/><stop offset="0.42" stop-color="#89d9f8"/><stop offset="0.61" stop-color="#bceafb"/><stop offset="0.78" stop-color="#e0f5fd"/><stop offset="0.91" stop-color="#f7fcfe"/><stop offset="1" stop-color="#fff"/></linearGradient><linearGradient id="linear-gradient-20" x1="456.62" y1="352.91" x2="589.19" y2="220.34" gradientTransform="matrix(1, 0, 0, 1, 0, 0)" xlink:href="#linear-gradient-19"/><linearGradient id="linear-gradient-21" x1="823.12" y1="470.72" x2="962.42" y2="331.42" gradientUnits="userSpaceOnUse"><stop offset="0" stop-color="#fff"/><stop offset="0.09" stop-color="#f7fcfe"/><stop offset="0.22" stop-color="#e0f5fd"/><stop offset="0.39" stop-color="#bceafb"/><stop offset="0.58" stop-color="#89d9f8"/><stop offset="0.79" stop-color="#48c5f4"/><stop offset="1" stop-color="#00aeef"/></linearGradient><linearGradient id="linear-gradient-22" x1="634.2" y1="462.25" x2="696.71" y2="399.74" gradientTransform="matrix(1, 0, 0, 1, 0, 0)" xlink:href="#linear-gradient-19"/><linearGradient id="linear-gradient-23" x1="198.96" y1="328.32" x2="248.46" y2="278.82" xlink:href="#linear-gradient-21"/><linearGradient id="linear-gradient-24" x1="349.62" y1="104.08" x2="371.31" y2="82.39" gradientTransform="matrix(1, 0, 0, 1, 0, 0)" xlink:href="#linear-gradient-19"/><linearGradient id="linear-gradient-25" x1="703.79" y1="117.62" x2="732.13" y2="89.28" gradientTransform="matrix(1, 0, 0, 1, 0, 0)" xlink:href="#linear-gradient-19"/><linearGradient id="linear-gradient-26" x1="266.04" y1="548.75" x2="318.62" y2="496.17" gradientTransform="matrix(1, 0, 0, 1, 0, 0)" xlink:href="#linear-gradient-19"/><linearGradient id="linear-gradient-27" x1="1012.54" y1="440.62" x2="1043.27" y2="409.88" gradientTransform="translate(1166.96 -669.69) rotate(90)" xlink:href="#linear-gradient-21"/><linearGradient id="linear-gradient-28" x1="922.6" y1="438.95" x2="990.93" y2="438.95" gradientTransform="matrix(-1, 0, 0, 1, 1362.41, 0)" gradientUnits="userSpaceOnUse"><stop offset="0" stop-color="#3ec7f4"/><stop offset="0.29" stop-color="#30b9ec"/><stop offset="0.83" stop-color="#0d96d7"/><stop offset="1" stop-color="#0089cf"/></linearGradient><linearGradient id="linear-gradient-29" x1="574.17" y1="600.74" x2="675.02" y2="499.89" gradientTransform="matrix(1, 0, 0, 1, 0, 0)" xlink:href="#linear-gradient-19"/><linearGradient id="linear-gradient-30" x1="78.89" y1="496.18" x2="155.74" y2="419.33" gradientTransform="matrix(1, 0, 0, 1, 0, 0)" xlink:href="#linear-gradient-19"/><linearGradient id="linear-gradient-31" x1="752.04" y1="717.28" x2="802.32" y2="667" gradientTransform="matrix(1, 0, 0, 1, 0, 0)" xlink:href="#linear-gradient-19"/><linearGradient id="linear-gradient-32" x1="1003.15" y1="625.36" x2="1124.75" y2="503.76" gradientTransform="matrix(1, 0, 0, 1, 0, 0)" xlink:href="#linear-gradient-19"/><linearGradient id="linear-gradient-33" x1="1313.46" y1="486.99" x2="1359.72" y2="440.72" gradientTransform="matrix(1, 0, 0, 1, 0, 0)" xlink:href="#linear-gradient-19"/><linearGradient id="linear-gradient-34" x1="465.63" y1="379.68" x2="444.13" y2="459.9" gradientUnits="userSpaceOnUse"><stop offset="0" stop-color="#fff200"/><stop offset="1" stop-color="#00aeef"/></linearGradient><linearGradient id="linear-gradient-35" x1="1030.57" y1="401.79" x2="1056.53" y2="401.79" gradientTransform="matrix(-0.27, 1, -1, 0, 1404.58, -550)" xlink:href="#linear-gradient-34"/><linearGradient id="linear-gradient-36" x1="808.81" y1="466.43" x2="801.87" y2="492.31" xlink:href="#linear-gradient-34"/><linearGradient id="linear-gradient-37" x1="1235.81" y1="590.92" x2="1228.87" y2="616.81" xlink:href="#linear-gradient-34"/><linearGradient id="linear-gradient-38" x1="1170.15" y1="173.05" x2="1197.2" y2="173.05" gradientTransform="matrix(-0.27, 1, -1, 0, 1404.58, -550)" xlink:href="#linear-gradient-34"/><linearGradient id="linear-gradient-39" x1="568.87" y1="483.82" x2="554.3" y2="538.21" xlink:href="#linear-gradient-34"/><linearGradient id="linear-gradient-40" x1="898.61" y1="-15.59" x2="938.1" y2="-15.59" gradientTransform="matrix(-0.27, 1, -1, 0, 1404.58, -550)" xlink:href="#linear-gradient-34"/><linearGradient id="linear-gradient-41" x1="977.01" y1="47.43" x2="993.69" y2="47.43" gradientTransform="matrix(-0.27, 1, -1, 0, 1404.58, -550)" xlink:href="#linear-gradient-34"/><linearGradient id="linear-gradient-42" x1="979.17" y1="225.75" x2="1020.46" y2="225.75" gradientTransform="matrix(-0.27, 1, -1, 0, 1404.58, -550)" xlink:href="#linear-gradient-34"/><linearGradient id="linear-gradient-43" x1="534.42" y1="205.86" x2="527.84" y2="230.41" xlink:href="#linear-gradient-34"/><linearGradient id="linear-gradient-44" x1="1325.61" y1="545.5" x2="1341.3" y2="545.5" gradientUnits="userSpaceOnUse"><stop offset="0" stop-color="#00aeef"/><stop offset="1" stop-color="#fff200"/></linearGradient><linearGradient id="linear-gradient-45" x1="126.2" y1="281.3" x2="103.72" y2="365.17" xlink:href="#linear-gradient-34"/><linearGradient id="linear-gradient-46" x1="125.96" y1="282.19" x2="103.96" y2="364.28" xlink:href="#linear-gradient-34"/><linearGradient id="linear-gradient-47" x1="125.72" y1="283.07" x2="104.2" y2="363.4" xlink:href="#linear-gradient-34"/><linearGradient id="linear-gradient-48" x1="125.49" y1="283.96" x2="104.44" y2="362.52" xlink:href="#linear-gradient-34"/><linearGradient id="linear-gradient-49" x1="125.25" y1="284.84" x2="104.67" y2="361.63" xlink:href="#linear-gradient-34"/><linearGradient id="linear-gradient-50" x1="125.01" y1="285.73" x2="104.91" y2="360.75" xlink:href="#linear-gradient-34"/><linearGradient id="linear-gradient-51" x1="124.78" y1="286.61" x2="105.15" y2="359.87" xlink:href="#linear-gradient-34"/><linearGradient id="linear-gradient-52" x1="683.88" y1="280.2" x2="671.22" y2="327.45" xlink:href="#linear-gradient-34"/><linearGradient id="linear-gradient-53" x1="683.75" y1="280.72" x2="671.36" y2="326.93" xlink:href="#linear-gradient-34"/><linearGradient id="linear-gradient-54" x1="683.61" y1="281.23" x2="671.5" y2="326.41" xlink:href="#linear-gradient-34"/><linearGradient id="linear-gradient-55" x1="683.47" y1="281.75" x2="671.64" y2="325.89" xlink:href="#linear-gradient-34"/><linearGradient id="linear-gradient-56" x1="683.33" y1="282.27" x2="671.78" y2="325.38" xlink:href="#linear-gradient-34"/><linearGradient id="linear-gradient-57" x1="683.19" y1="282.78" x2="671.92" y2="324.86" xlink:href="#linear-gradient-34"/><linearGradient id="linear-gradient-58" x1="683.05" y1="283.3" x2="672.06" y2="324.34" xlink:href="#linear-gradient-34"/><linearGradient id="linear-gradient-59" x1="317" y1="496.33" x2="279.29" y2="637.09" xlink:href="#linear-gradient-34"/><linearGradient id="linear-gradient-60" x1="316.61" y1="497.78" x2="279.68" y2="635.64" xlink:href="#linear-gradient-34"/><linearGradient id="linear-gradient-61" x1="316.22" y1="499.24" x2="280.07" y2="634.18" xlink:href="#linear-gradient-34"/><linearGradient id="linear-gradient-62" x1="315.83" y1="500.7" x2="280.46" y2="632.73" xlink:href="#linear-gradient-34"/><linearGradient id="linear-gradient-63" x1="315.44" y1="502.16" x2="280.85" y2="631.27" xlink:href="#linear-gradient-34"/><linearGradient id="linear-gradient-64" x1="315.05" y1="503.62" x2="281.24" y2="629.81" xlink:href="#linear-gradient-34"/><linearGradient id="linear-gradient-65" x1="314.66" y1="505.07" x2="281.63" y2="628.36" xlink:href="#linear-gradient-34"/><linearGradient id="linear-gradient-66" x1="1032.36" y1="517.76" x2="1026.16" y2="540.91" xlink:href="#linear-gradient-34"/><linearGradient id="linear-gradient-67" x1="1032.29" y1="518.03" x2="1026.24" y2="540.63" xlink:href="#linear-gradient-34"/><linearGradient id="linear-gradient-68" x1="1032.22" y1="518.31" x2="1026.31" y2="540.36" xlink:href="#linear-gradient-34"/><linearGradient id="linear-gradient-69" x1="1032.14" y1="518.58" x2="1026.38" y2="540.08" xlink:href="#linear-gradient-34"/><linearGradient id="linear-gradient-70" x1="1032.07" y1="518.85" x2="1026.46" y2="539.81" xlink:href="#linear-gradient-34"/><linearGradient id="linear-gradient-71" x1="1032" y1="519.13" x2="1026.53" y2="539.53" xlink:href="#linear-gradient-34"/><linearGradient id="linear-gradient-72" x1="1031.92" y1="519.4" x2="1026.6" y2="539.26" xlink:href="#linear-gradient-34"/><linearGradient id="linear-gradient-73" x1="380.51" y1="463.55" x2="429.59" y2="414.47" gradientTransform="matrix(1, 0, 0, 1, 0, 0)" xlink:href="#linear-gradient-19"/></defs><title>sports</title><rect class="cls-1" width="1400" height="800" transform="translate(1400 800) rotate(180)"/><path class="cls-2" d="M0,309.13V536.05A521.22,521.22,0,0,0,149,800H870.18c99.45-95,161.39-229,161.39-377.41,0-173.78-84.92-327.72-215.52-422.59H203.15C101.83,73.6,28,182.75,0,309.13Z"/><polygon class="cls-3" points="689.59 704.58 52.54 562.4 494.19 81.78 689.59 704.58"/><polygon class="cls-4" points="409.49 410.5 458.49 229.5 633.91 415.09 667.49 0 595.49 0 599.49 335.5 449.49 177.5 409.49 410.5"/><circle class="cls-5" cx="279.49" cy="330.5" r="6"/><path class="cls-6" d="M243.7,439A161.95,161.95,0,1,0,405.64,277,161.94,161.94,0,0,0,243.7,439Zm22.08,0A139.86,139.86,0,1,1,405.64,578.81,139.86,139.86,0,0,1,265.78,439Z"/><path class="cls-7" d="M297.67,439a108,108,0,1,0,108-108A108,108,0,0,0,297.67,439Zm31.89,0A76.08,76.08,0,1,1,405.64,515,76.08,76.08,0,0,1,329.56,439Z"/><circle class="cls-8" cx="579.49" cy="308.5" r="9"/><circle class="cls-9" cx="520.49" cy="82.5" r="6"/><circle class="cls-10" cx="441.99" cy="629" r="13.5"/><circle class="cls-11" cx="700.09" cy="592.08" r="20.75"/><circle class="cls-12" cx="1224.7" cy="380.77" r="24.25"/><circle class="cls-13" cx="250.99" cy="215" r="39.5"/><circle class="cls-14" cx="668.49" cy="341.5" r="6"/><circle class="cls-15" cx="460.49" cy="420.5" r="4"/><circle class="cls-16" cx="522.99" cy="428" r="7.5"/><circle class="cls-17" cx="763.09" cy="262.1" r="12.5"/><circle class="cls-18" cx="590.49" cy="458.5" r="8.25"/><polygon class="cls-19" points="426.54 311.17 409.49 410.5 433.95 320.17 426.54 311.17"/><polygon class="cls-20" points="930.49 0 823.49 102.5 700.49 0 930.49 0"/><circle class="cls-21" cx="362.87" cy="572.13" r="8.62"/><path class="cls-22" d="M339.78,586.83a2.73,2.73,0,0,0-1.11,1.84l-3.35,22.43a4.54,4.54,0,0,1-2.75,3.52l-9.7,4c-9.09,3.73-14.68,14.07-16,22.11l-.56,3.38c-1.07,6.39-1.41,15.73,3,24,4.19,7.82,11.55,12.65,21.88,14.37s18.86-.46,25.36-6.5c6.85-6.35,9.55-15.3,10.61-21.68l.57-3.39a30,30,0,0,0,.38-4c.21-7.53-2.14-16.62-8.36-22.07l-7.89-6.91a4.52,4.52,0,0,1-1.46-4.22l4.11-22.31a2.77,2.77,0,0,0-2.27-3.23l-10.37-1.73A2.75,2.75,0,0,0,339.78,586.83Zm7.29,28.55a7.87,7.87,0,0,0,2.6,4.94l7.88,6.91c6.16,5.39,8.13,15.68,6.9,23.07l-.56,3.38c-1,5.88-3.44,14.08-9.61,19.8-5.71,5.3-13.3,7.21-22.56,5.67-25.2-4.2-23.34-27.49-22.16-34.52l.56-3.39c1.23-7.38,6.44-16.48,14-19.58l9.69-4a7.83,7.83,0,0,0,4.06-3.83Zm4.07-24.13-3.84,20.81-8.56-1.43,3.12-20.93Zm-26.22,60.6a8.74,8.74,0,0,0,15.8-3.38,8.83,8.83,0,0,0,.14-1.35,8.74,8.74,0,1,0-15.94,4.73Zm11.67-8a5.43,5.43,0,0,1-5.45,8.42,5.43,5.43,0,0,1-2.1-9.81A5.45,5.45,0,0,1,336.59,643.81Z"/><path class="cls-23" d="M590.85,222a13.44,13.44,0,0,1-1.47,2.36l-37.11,33.22a2,2,0,0,1-.8.4l-.81.23a22.24,22.24,0,0,1-10.68-4c-2.28-1.66-4.81-1.68-6.62-.06L450.5,328.32l-.19.17-.3.3-.15.16-.15.17c-4.1,4.72-2.25,13.8,4.31,21.12,4,4.47,8.84,7.27,13.18,8a9.91,9.91,0,0,0,7.35-1.36,1,1,0,0,0,.17-.12l.17-.13.29-.23L558.28,282c1.81-1.62,2.06-4.14.67-6.58a22.32,22.32,0,0,1-2.81-11.05l.32-.78a2.31,2.31,0,0,1,.49-.76l37.11-33.22a13.16,13.16,0,0,1,2.5-1.2ZM473.25,353.65l-.11.06-.1.13-.18.14-.2.14c-3.65,2.53-10.91-.21-16.17-6.09s-7.19-13.39-4.25-16.78l.15-.16.14-.14.17-.16,82.36-73.73c-.55,12.34-4.83,23.22-11.57,29.25a1.66,1.66,0,0,0,.85,2.87,1.68,1.68,0,0,0,1.36-.4h0c11-9.82,24.45-9.07,29.37-8.38Zm82.91-76.46a41.33,41.33,0,0,0-24,3.29,52.92,52.92,0,0,0,6.18-23.36,25.17,25.17,0,0,0,9,3.89l5.64,6.3a25.09,25.09,0,0,0,3.08,9.72Z"/><path class="cls-24" d="M990.39,363.73,985.85,355a1.63,1.63,0,0,0-2.22-.71l-2,1a1.67,1.67,0,0,0-.54.45l-.78,1L942,376.58l-7.79,7.75a1.85,1.85,0,0,0-.45,1.67l-54.26,28.08A29.93,29.93,0,0,0,861,399.6c-8.84-2.3-19-.71-29.25,4.62C810,415.47,798.91,437.38,807,453.07c4.93,9.52,15.81,14.6,28.47,14.6a56.45,56.45,0,0,0,25.65-6.54c10.3-5.33,17.44-12.67,20.67-21.21a29.89,29.89,0,0,0-1.14-23.48L935,388.35a1.88,1.88,0,0,0,1.36.59l.27,0L947.38,387l38.33-19.84,1.27,0a1.79,1.79,0,0,0,.71-.19l2-1a1.65,1.65,0,0,0,.7-2.22ZM881,430.07l-2.37,1.22-1.8-3.49,3.9-2A25.76,25.76,0,0,1,881,430.07Zm-.51,4.81-1.57-3,2.07-1.07A26.85,26.85,0,0,1,880.52,434.88Zm-1.85,5.7-1.41-2.73,2.92-1.51c-.24.89-.51,1.77-.84,2.65C879.13,439.52,878.91,440.05,878.67,440.58Zm-5.36,8.15-1.51-2.92,3.22-1.67.76,1.48A35.42,35.42,0,0,1,873.31,448.73Zm-50,14.42-1-2,3.22-1.67,1.81,3.49-1.62.84C824.84,463.64,824,463.42,823.26,463.15Zm-16-25,1.87-1,1.81,3.49-3.92,2A25,25,0,0,1,807.26,438.18Zm10.87-20.63,1.65,3.19-3.22,1.67-1-1.94C816.36,419.47,817.22,418.5,818.13,417.55Zm34.69-16.31,1,1.9-3.23,1.66-1.73-3.34A31.64,31.64,0,0,1,852.82,401.24ZM821,431.06l3.22-1.67,1.81,3.49-3.22,1.67Zm1.25,3.77-3.22,1.67L817.25,433l3.22-1.67ZM855,433.27l-3.22,1.67L850,431.45l3.22-1.67Zm-1.25-3.77,3.22-1.67,1.81,3.49L855.57,433Zm-17.21,3.78,3.22-1.67,1.81,3.49-3.23,1.67Zm1.25,3.77-3.23,1.67-1.8-3.49,3.22-1.67Zm2.53-5.73,3.22-1.67,1.81,3.49-3.23,1.67Zm3.78-2,3.22-1.66,1.81,3.48-3.23,1.67Zm5.31,2.38,1.81,3.49L848,436.9l-1.81-3.49Zm.27-.84-1.8-3.49,3.22-1.67,1.81,3.49Zm-2.09-4-1.81-3.49,3.23-1.67,1.8,3.49Zm-.56.29-3.22,1.67L842,425.32l3.23-1.67Zm-3.78,2-3.22,1.67-1.81-3.49,3.23-1.67Zm-3.78,1.95-3.22,1.67-1.81-3.49,3.23-1.67Zm-3.78,2-3.22,1.67-1.81-3.49,3.23-1.67Zm-3.78,2-3.22,1.66-1.81-3.49,3.23-1.66Zm.29.55L834,439l-3.23,1.67-1.8-3.49Zm2.09,4.05,1.81,3.48-3.22,1.67-1.81-3.49Zm.56-.29,3.22-1.67,1.81,3.49-3.22,1.67Zm3.78-2,3.22-1.67,1.81,3.49-3.22,1.67Zm3.78-1.95,3.22-1.67,1.81,3.49-3.22,1.66Zm5.32,2.37,1.8,3.49-3.22,1.67-1.81-3.49Zm.55-.29,3.23-1.67,1.8,3.49-3.22,1.67Zm3.78-1.95,3.23-1.67,1.8,3.49L853.89,439Zm3.78-2,3.23-1.67,1.8,3.49L857.67,437Zm3.78-2,3.23-1.66,1.8,3.49-3.22,1.66Zm-.29-.55-1.8-3.49,3.22-1.67,1.81,3.49Zm-2.09-4-1.8-3.48,3.22-1.67,1.81,3.49Zm-.55.29-3.23,1.67-1.8-3.49,3.22-1.67Zm-5.32-2.37-1.81-3.49,3.23-1.67,1.8,3.49Zm-2.1-4-1.8-3.49,3.22-1.67,1.81,3.49Zm-.55.29-3.22,1.67-1.81-3.49,3.22-1.67Zm-5.32-2.38-1.8-3.49,3.22-1.67,1.81,3.49ZM845,423.1l-3.22,1.66-1.81-3.49,3.22-1.66Zm-3.78,1.95L838,426.72l-1.81-3.49,3.22-1.67Zm-3.78,2-3.22,1.67-1.81-3.49,3.22-1.67ZM833.62,429l-3.22,1.67-1.81-3.49,3.22-1.67Zm-3.78,2-3.22,1.67-1.81-3.49,3.22-1.67Zm-3.49,2.51,1.8,3.49-3.22,1.67-1.81-3.49Zm2.09,4.05,1.81,3.49L827,442.63l-1.8-3.48Zm2.09,4,1.81,3.49-3.22,1.67-1.81-3.49Zm2.1,4.05,1.8,3.49-3.22,1.66-1.81-3.48Zm.55-.29,3.23-1.67,1.8,3.49L835,448.77Zm3.78-2,3.23-1.67,1.8,3.49-3.22,1.67Zm3.78-1.95L844,439.7l1.8,3.49-3.22,1.67Zm5.32,2.37,1.81,3.49-3.23,1.67-1.8-3.49Zm.56-.29,3.22-1.66,1.81,3.49-3.23,1.66Zm5.31,2.38,1.81,3.49L850.52,451l-1.81-3.49Zm-1.53-4.33,3.22-1.67,1.81,3.49L852.2,445Zm3.78-2,3.22-1.67,1.81,3.49L856,443Zm3.78-2,3.22-1.67,1.81,3.49-3.23,1.67Zm3.78-2L865,434l1.81,3.49-3.23,1.67Zm3.78-2,3.22-1.67,1.81,3.49-3.23,1.67Zm-.29-.55-1.81-3.49,3.23-1.67,1.8,3.49Zm-2.1-4.05-1.8-3.49,3.22-1.66,1.81,3.48ZM861,425l-1.8-3.49,3.22-1.67,1.81,3.49ZM859,421l-1.81-3.49,3.23-1.66,1.8,3.49Zm-.56.29-3.22,1.67-1.81-3.49,3.23-1.67Zm-5.32-2.37-1.8-3.49,3.22-1.67,1.81,3.49Zm-2.09-4-1.8-3.49,3.22-1.67,1.81,3.49Zm-.55.29-3.23,1.67-1.8-3.49,3.22-1.67Zm-5.32-2.38-1.81-3.49,3.23-1.67,1.8,3.49Zm-.56.29-3.22,1.67-1.81-3.49,3.23-1.67Zm-1.68,6-3.23,1.67-1.8-3.49,3.22-1.67Zm-3.78,2-3.23,1.67-1.8-3.49,3.22-1.67ZM835.31,423l-3.23,1.67-1.8-3.49,3.22-1.67Zm-3.78,2-3.23,1.67-1.8-3.49,3.22-1.67Zm-5.32-2.38-1.81-3.49,3.23-1.66,1.8,3.48Zm1.54,4.34-3.23,1.66-1.8-3.48,3.22-1.67ZM824,428.83l-3.23,1.67-1.8-3.49,3.22-1.67Zm-3.78,2L817,432.46l-1.8-3.49,3.22-1.67Zm-1.69,6-3.22,1.67L813.47,435l3.22-1.67Zm.29.55,1.8,3.49-3.22,1.67L815.56,439Zm.55-.28,3.23-1.67,1.8,3.49-3.22,1.67Zm5.32,2.37,1.81,3.49-3.23,1.67-1.8-3.49Zm2.09,4.05,1.81,3.49-3.22,1.67-1.81-3.49Zm2.1,4,1.8,3.49-3.22,1.67-1.81-3.49Zm2.09,4.05,1.81,3.49-3.23,1.67-1.8-3.49Zm.56-.29,3.22-1.67,1.81,3.49-3.23,1.67Zm3.78-2,3.22-1.67,1.81,3.49-3.23,1.67Zm3.78-1.95,3.22-1.67,1.81,3.49-3.23,1.67Zm5.31,2.37,1.81,3.49L843,454.9l-1.81-3.49Zm.56-.28,3.22-1.67,1.81,3.49L846.74,453Zm5.32,2.37,1.8,3.49L848.83,457,847,453.5Zm.55-.29,3.23-1.66,1.8,3.48L852.61,455Zm1.69-6,3.22-1.67,1.81,3.49L854.3,449Zm3.78-2,3.22-1.67,1.81,3.49-3.22,1.67Zm3.78-2,3.22-1.67,1.81,3.49-3.23,1.67Zm3.78-2,3.22-1.66,1.81,3.49-3.23,1.66Zm3.78-1.95,3.22-1.67,1.81,3.49-3.23,1.67Zm1.69-6,3.22-1.67,1.81,3.49-3.23,1.67Zm-.29-.56-1.81-3.49,3.23-1.67,1.8,3.49Zm-2.1-4-1.8-3.49,3.22-1.67,1.81,3.49Zm-2.09-4.05-1.8-3.49,3.22-1.67,1.81,3.49Zm-2.09-4-1.81-3.49,3.23-1.67,1.8,3.49Zm-.12-9.49,3.22-1.67,1.81,3.49L864.41,413Zm1.25,3.77L860.63,415l-1.8-3.49,3.22-1.67Zm-3.78,2-3.23,1.67-1.8-3.49,3.22-1.67Zm-5.32-2.38-1.8-3.48,3.22-1.67,1.81,3.49Zm-2.09-4-1.81-3.49,3.23-1.67,1.8,3.49Zm-.56.29-3.22,1.67-1.81-3.49,3.23-1.67Zm-5.32-2.38-1.8-3.49,3.22-1.67,1.81,3.49Zm-.55.29L843,408.72l-1.8-3.49,3.22-1.67ZM842.46,409l-3.22,1.67-1.81-3.49,3.22-1.66Zm-1.69,6-3.22,1.66-1.81-3.48,3.23-1.67ZM837,417l-3.22,1.67L832,415.14l3.23-1.67Zm-3.78,2L830,420.59l-1.81-3.49,3.23-1.67Zm-5.31-2.38-1.81-3.49,3.22-1.67,1.81,3.49Zm-.56.29-3.22,1.67L822.31,415l3.22-1.67Zm-1.69,6-3.22,1.67L820.62,421l3.23-1.67Zm-3.78,2-3.22,1.67L816.84,423l3.23-1.67Zm-3.78,1.95-3.22,1.67-1.81-3.49,3.23-1.67Zm-1.68,6-3.23,1.67-1.8-3.49,3.22-1.67Zm-3.78,2-3.23,1.67L808.17,434c.17-.57.35-1.13.55-1.69l2.1-1.09Zm.28.56,1.81,3.49-3.22,1.66-1.81-3.49Zm2.1,4,1.8,3.49-3.22,1.67L811.78,441Zm2.09,4.05,1.81,3.48-3.23,1.67-1.8-3.49Zm.56-.29,3.22-1.67,1.81,3.49-3.23,1.67Zm5.31,2.37,1.81,3.49-3.22,1.67-1.81-3.49Zm2.1,4.05,1.8,3.49-3.22,1.67-1.81-3.49Zm.12,9.49L822,460.64l-1.8-3.49,3.22-1.67Zm-1.25-3.78,3.22-1.67L829,457l-3.23,1.67Zm5.31,2.38,1.81,3.49-3.22,1.67L826,459.24Zm.56-.29,3.22-1.67,1.81,3.49-3.22,1.67Zm3.78-2,3.22-1.66,1.81,3.49-3.22,1.66Zm3.78-1.95,3.22-1.67,1.81,3.49-3.22,1.67Zm5.32,2.37,1.8,3.49-3.22,1.67-1.81-3.49Zm.55-.28,3.23-1.67,1.8,3.49L845.05,459Zm5.32,2.37,1.81,3.49L847.14,463l-1.8-3.49Zm.56-.28,3.22-1.67,1.81,3.49L850.92,461Zm3.78-2,3.22-1.67,1.81,3.49-3.23,1.67Zm1.68-6,3.23-1.67,1.8,3.49-3.22,1.67Zm3.78-2,3.23-1.67,1.8,3.49-3.22,1.67Zm3.78-1.95,3.23-1.67,1.8,3.49L864,449.16Zm5.32,2.37,1.81,3.49L866,453.21l-1.8-3.49Zm-1.54-4.33,3.23-1.67,1.8,3.49-3.22,1.67Zm3.78-2,3.23-1.67,1.8,3.49-3.22,1.67Zm1.69-6,3.22-1.67,1.81,3.49-3.23,1.67Zm3.78-1.95,3.22-1.67,1.81,3.49L877,437.3Zm-.29-.56-1.8-3.49,3.22-1.67,1.81,3.49Zm-2.09-4L871,425.72l3.23-1.67,1.8,3.49Zm-2.1-4-1.8-3.49,3.22-1.67,1.81,3.49Zm-.11-9.49,5.09-2.64a32.51,32.51,0,0,1,2.05,3.37l-5.34,2.76Zm1.25,3.78-3.23,1.67-1.8-3.49L870,416Zm-5.32-2.38-1.81-3.49,3.23-1.67,1.8,3.49Zm-.12-9.49,2.6-1.34a27.25,27.25,0,0,1,3.26,2.73l-4.06,2.1Zm-.29-.55-1.79-3.46a26.26,26.26,0,0,1,4.09,2.26Zm-.55.28L862.32,409l-1.8-3.49,3.22-1.67Zm-3.78,2-3.23,1.67-1.8-3.49,3.22-1.67Zm-5.32-2.38-1.81-3.49,3.23-1.66,1.8,3.48Zm-2.1-4-.83-1.61a32,32,0,0,1,3.42.27Zm-9.65-.13-.25-.49c.66-.15,1.32-.29,2-.41Zm-.55.28-3.23,1.67-.64-1.25c1.19-.4,2.37-.75,3.54-1Zm-3.78,2-3.23,1.67-.85-1.65c1.13-.5,2.27-1,3.39-1.34Zm-1.69,6-3.22,1.67-1.81-3.49,3.22-1.67Zm-3.78,2-3.22,1.67-1.81-3.49,3.22-1.67Zm-5.32-2.38-.82-1.58c1-.64,2.07-1.25,3.14-1.83l.91,1.74Zm-.55.29-3.23,1.67-.59-1.14c1-.71,2-1.4,3-2.07Zm-3.78,2L822,414.45l-.2-.39c.92-.8,1.89-1.57,2.88-2.32Zm-3.78,1.95-1,.52.86-.78Zm-2.58,2,2.86-1.48,1.81,3.49-3.22,1.66-1.75-3.37ZM816,422.7l-3.22,1.67,0-.07c.73-1.11,1.53-2.21,2.38-3.3Zm-3.49,2.51,1.8,3.49-3.22,1.67-.85-1.65c.53-1.09,1.12-2.18,1.77-3.25Zm-2,5.45-1.47.76c.26-.67.53-1.33.84-2Zm-1.68,6-1.47.76c.14-.84.33-1.69.55-2.54Zm2.38,4.6,1.8,3.49-5.31,2.75a22.41,22.41,0,0,1-.67-4.08Zm2.09,4,1.81,3.49-5.78,3a20.64,20.64,0,0,1-1.46-3.67Zm2.1,4.05,1.8,3.49-5.35,2.77a21,21,0,0,1-2.22-3.28Zm.55-.29,3.22-1.67,1.81,3.49-3.22,1.67Zm5.32,2.37,1.8,3.49-3.22,1.67-1.81-3.49Zm.12,9.5-1.57.81a25.56,25.56,0,0,1-4-2.38l3.71-1.92Zm.28.55.7,1.35c-.62-.24-1.24-.49-1.84-.76Zm5.88,2.09.42.81c-.48-.09-1-.19-1.42-.3Zm.55-.29,3.23-1.67,1.74,3.37a40.11,40.11,0,0,1-4.33-.47Zm3.78-1.95,3.23-1.67,1.8,3.49-3.22,1.66Zm3.78-2,3.23-1.67,1.8,3.49-3.22,1.67Zm5.32,2.38,1.43,2.77c-1.3.19-2.59.33-3.87.41l-.78-1.52Zm2.08,2.66-1.52-3,3.22-1.67,1.81,3.49-1.47.76C844.44,464.17,843.76,464.3,843.08,464.41Zm7.57-2.53.33.62c-1.15.37-2.29.7-3.43,1Zm.56-.29,3.22-1.67L855,461c-1.14.47-2.29.89-3.43,1.27Zm3.78-2,3.22-1.67.69,1.33c-1.1.54-2.2,1-3.31,1.51Zm1.69-6L859.9,452l1.81,3.49-3.23,1.67Zm3.78-1.95,3.22-1.67,1.81,3.49-3.23,1.67Zm5.31,2.37.47.9c-1,.69-2,1.36-3.06,2l-.63-1.23Zm.56-.29,3.22-1.66.11.2c-.92.79-1.89,1.55-2.9,2.29Zm3.78-1.95.23-.12-.2.18Zm1.87-1.67-2.16,1.11-1.8-3.49,3.22-1.66,1.62,3.12Zm3.6-6.29,1.95-1c-.41.74-.86,1.47-1.34,2.19Zm2.48-2-2.77,1.44-1.81-3.49,3.23-1.67,1.63,3.15C878.25,441.48,878.16,441.67,878.06,441.86Zm-1.49-14.61-1.81-3.49,5-2.56a28.85,28.85,0,0,1,1,3.93Zm-2.1-4.05-1.8-3.48L878,417a30.76,30.76,0,0,1,1.53,3.63Zm.84-10.68-5,2.59-1.81-3.48,4.23-2.19A27.65,27.65,0,0,1,875.31,412.52Zm-11.89-9.32,0,.07-3.22,1.67-1.63-3.16c.56.11,1.12.24,1.68.38A28.16,28.16,0,0,1,863.42,403.2Zm-27.7,2,.87,1.69-3.23,1.67-.91-1.76.47-.25C833.86,406.09,834.79,405.65,835.72,405.23ZM812.3,456.09l5.21-2.7,1.8,3.49-4,2.06A22.12,22.12,0,0,1,812.3,456.09ZM834.65,465l2.57-1.33.66,1.27C836.79,465,835.71,465.05,834.65,465Zm25.29-6.26-.48.24-.69-1.33L862,456l.65,1.26C861.77,457.78,860.87,458.29,859.94,458.77Zm126.74-94.25-1.28,0a1.62,1.62,0,0,0-.71.18L946.52,384.5l-9,1.57-.44-.85,6.51-6.47L981.72,359a1.57,1.57,0,0,0,.54-.45l.78-1,.92-.48,3.62,7Z"/><path class="cls-25" d="M698.5,403.49c-4.35-6.75-9.73-15.1-20.15-10.26-3.14-2.38-10.22-4.76-22.15,6.54-11,10.42-14.7,17.49-13.7,24.59l-17.07,11.33a7.75,7.75,0,0,0-2.91,5.55c-.4,3.6,1,7.79,4.08,12.46s6.41,7.58,9.82,8.59a8.86,8.86,0,0,0,2.59.39,6.78,6.78,0,0,0,3.69-1l18.47-12.27a18.62,18.62,0,0,0,7,1.3c5.13,0,11.52-1.73,19.79-5.94,10.77-5.48,16.32-10.73,18-17S705.54,414.42,698.5,403.49Zm-57.64,55.44a4.27,4.27,0,0,1-3.5.19c-1.81-.54-4.68-2.24-8-7.25s-3.76-8.34-3.55-10.26a4.73,4.73,0,0,1,1.45-3.16l16.08-10.67a41.53,41.53,0,0,0,5.2,9.67c2.77,4.08,5.62,7.77,9.29,10.22Zm61.95-32c-1.41,5.24-6.6,10-16.32,14.93-7.82,4-13.69,5.55-18.28,5.55-8.93,0-13-6-16.93-11.79-7-10.34-10.15-17,7.2-33.42,6.65-6.3,12.48-8.76,16.46-7.1-1.31.82-3.25,2.06-5.45,3.55-7.9,5.37-8.22,14.39-.9,25.4.9,1.36,9,13.29,15.41,13.74.28,0,.58,0,.87,0,4.63,0,10.48-2.32,11.82-3a1.66,1.66,0,1,0-1.55-2.93c-1.15.61-7,2.9-10.91,2.62-2.84-.2-8.38-5.47-12.88-12.26-4.35-6.55-7.88-15.47,0-20.83,2.89-2,5.34-3.49,6.41-4.16l0,0,1.07-.56c7.24-3.85,10.89-.61,16.83,8.61C702.19,415.33,704.25,421.6,702.81,426.9Z"/><path class="cls-26" d="M326.17,358.2a4,4,0,0,1-.6,2.11l-4.28,6.87a4,4,0,0,1-5.52,1.27c-1.16-.72-1.69-2.41-1.91-3.41l0,0a9.78,9.78,0,0,0-2.44-2.6l-58.06-36.24-57.56-27.94c-1.08-.58-2.16-1.21-3.22-1.87l-67.33-42a5.4,5.4,0,0,1-1.72-7.43l7.07-11.35a5.41,5.41,0,0,1,7.43-1.72l67.33,42c1.05.65,2.09,1.35,3.09,2.06l.06.05,50.36,39.35,58.07,36.21.13.06.23.1a17.43,17.43,0,0,0,3.37.93,4.8,4.8,0,0,1,3.66.17A4,4,0,0,1,326.17,358.2Zm-8.58,7.48a.69.69,0,0,0,.88-.26l4.29-6.87a.69.69,0,0,0-.16-.9,3.7,3.7,0,0,0-1.29.24l-.42.15-.44-.08a23.31,23.31,0,0,1-4.66-1.3l-.11-.05a3.73,3.73,0,0,1-.4-.2l-.08,0L256.93,320l-.07,0-50.4-39.38c-.94-.67-1.91-1.32-2.89-1.93l-67.33-42a2.09,2.09,0,0,0-2.87.67l-7.07,11.34a2.09,2.09,0,0,0,.66,2.87l67.33,42c1,.62,2,1.21,3,1.75l57.62,28,.07.05,58.26,36.35a12.92,12.92,0,0,1,3.22,3.34l.5.67.07.4A5.22,5.22,0,0,0,317.59,365.68Z"/><path class="cls-27" d="M381.24,95c-2-4.3-6.07-9.12-10.72-13.2-.48-.42-1-.82-1.45-1.23l-.55-.44-.75-.59a45,45,0,0,0-9.2-5.64c-5.31-2.4-10.16-2.94-12.67-.08l-6.61,7.54c-2,2.27-1.76,6.06.65,10.68a46.24,46.24,0,0,0,10.47,12.68c6.34,5.55,14.22,9.92,19.71,9.92a6.21,6.21,0,0,0,4.91-1.94l6.61-7.53h0C383.74,102.74,383.26,99,381.24,95ZM349.77,76a2.61,2.61,0,0,1,2-.59,12.74,12.74,0,0,1,4.43,1,34.17,34.17,0,0,1,6,3.1l.07,0q.69.45,1.38.93l.26.18,1.22.88.31.24c.4.31.8.62,1.19.94l.32.25c.5.41,1,.82,1.48,1.25s1.11,1,1.64,1.5l.78.77.71.7c.34.35.65.69,1,1l.37.4c.36.41.71.8,1,1.2L374,90c4.58,5.52,6.13,10.16,4.92,11.55-.62.7-2.66,1-6.38-.43a43.06,43.06,0,0,1-12.18-7.82C351.47,85.54,348.15,77.87,349.77,76Zm22.77,34.48c-1.9,2.17-10.41.07-19.94-8.29a43,43,0,0,1-9.72-11.72c-1.66-3.18-2.08-5.85-1.1-7l4.36-5c.71,5.06,5.84,11.85,12.05,17.29a46.41,46.41,0,0,0,13.16,8.42,16.18,16.18,0,0,0,5.56,1.26Z"/><path class="cls-28" d="M731.47,90.43c-6-9.59-14.26-16-22.81-17.58-4.5-.83-8.47-.16-11.18,1.89-3.06,2.32-5,6.4-5.45,11.49-.93,10.34,4.14,22.91,13.23,32.79s19.54,14.62,27,14.62a11,11,0,0,0,6.71-1.91C745.29,126.94,741.66,106.86,731.47,90.43Zm5.79,39.5c-.31,0-.62,0-.94,0-7.39,0-17.62-7.87-26.69-20.72C700.41,96.19,696,82.67,698.79,76.65c2.36,0,12.42,1.32,24.82,18.67C736.66,113.58,737.33,126.65,737.26,129.93Zm-30.42-12.36c-10.39-11.3-13.36-23.5-12.67-31.15a17.68,17.68,0,0,1,1.61-6.19c-.47,8.33,5.18,20.46,12.1,30.27,6.54,9.28,15.74,18.63,24.31,21C725.45,131.53,715.42,126.89,706.84,117.57Zm32.51,9.75c-.42-5.68-2.78-17.56-14-33.25C715.51,80.29,707,76.15,702.18,75a13.24,13.24,0,0,1,2.88-.31,17.14,17.14,0,0,1,3.2.31c7.85,1.46,15.84,7.66,21.38,16.6C738.21,105.37,741.48,120.7,739.35,127.32Z"/><path class="cls-29" d="M328.72,514.94a37.15,37.15,0,1,0-5.34,27.94A36.88,36.88,0,0,0,328.72,514.94Zm-64.39-10.88a33.27,33.27,0,0,1,6.05-6.9,20.29,20.29,0,0,0,3,2.43,23.44,23.44,0,0,0,11.16,3.74c2.63.19,5.3.14,7.88.1,6.42-.11,13.06-.22,18.65,3.45l.69.48c9.51,6.89,11,19.52,3.64,30.71-3.72,5.66-8.71,9.44-14.43,10.93a20.55,20.55,0,0,1-15.78-2.25c-.24-.14-.47-.29-.7-.44-5.44-3.58-7.72-9.47-9.93-15.18a72.36,72.36,0,0,0-3.29-7.62,23.51,23.51,0,0,0-7.85-8.77,20,20,0,0,0-3.28-1.75A33.73,33.73,0,0,1,264.33,504.06Zm56,36.81a33.52,33.52,0,0,1-61-24.25,15.83,15.83,0,0,1,2.11,1.18,19.83,19.83,0,0,1,6.62,7.4,73.09,73.09,0,0,1,3.12,7.26c2.42,6.24,4.91,12.68,11.34,16.91.27.18.55.35.83.52a24.2,24.2,0,0,0,18.57,2.65c6.62-1.73,12.34-6,16.57-12.46,8.49-12.91,6.62-27.59-4.55-35.68-.27-.2-.55-.39-.83-.57-6.54-4.3-13.75-4.18-20.72-4.06-2.5,0-5.09.09-7.55-.09a19.81,19.81,0,0,1-9.42-3.14,16.79,16.79,0,0,1-2.11-1.66A33.72,33.72,0,0,1,292.38,489a33.5,33.5,0,0,1,27.95,51.9Z"/><path class="cls-30" d="M769.3,361.36l2.16-4.54-3.94-2.77-15.47,6.72-3,3.36c-.44-.66-.89-1.31-1.35-2l2,0,1.83-2.08,16-7,.73.51.4-1-4.36-2.56-14.72,8.16-2.37,3.35c-.46-.65-.92-1.29-1.39-1.93l1.76,0,1.46-2.06,15.27-8.47,1.18.69.24-1.62-5-2.58-14,9.42-1.67,3.71-1.37-1.8,1.29,0,1.11-2.49,14.54-9.81,1.28.67L762,343l-5.23-2-12.7,11L743,355.79c-.44-.55-.88-1.11-1.33-1.66l1-.08.74-2.37,13.23-11.51,2,.76-.34-2.54-5.41-1.4L741.44,349.3l-.73,3.68c-.5-.6-1-1.2-1.51-1.79l1.09-.22.41-2.05,11.95-12.83,2.26.59-.84-3.2-4.91-.38-9.89,13.61-.77,3.64c-.5-.58-1-1.15-1.51-1.72l1.13-.33.41-1.92,10.25-14.12,2.65.21-1-2.83-4.37.63-8.84,14.2-.77,3.54c-.52-.58-1.05-1.15-1.58-1.72l1.24-.49.36-1.63,9.11-14.64,2.77-.4-1.41-3.06-4.9,1.09-7.37,15.13-.15,3.61-.13-.15a.24.24,0,0,0-.35.33l.14.16-4.37,7.29a.26.26,0,0,0-.23.07c-.09.09-.12.21-.05.28l0,.05-2.9,4.83c-.11-.08-.22-.17-.33-.24l-1-.73-4.61,3.68a8.34,8.34,0,0,0-2.21,10.34,8.44,8.44,0,0,0,.89,1.37,8.34,8.34,0,0,0,11.7,1.32l4.62-3.69-.48-1.15-.16-.34,5.39-1.77.15.23c0,.08.18.08.29,0a.23.23,0,0,0,.1-.29l-.07-.1,8-2.63.16.24a.23.23,0,0,0,.33.06.24.24,0,0,0,.07-.33l-.15-.22,3.54.66Zm-22.43.43-7.46,3.33c-.37-.53-.73-1.05-1.11-1.57l7.1-3.79Zm-13.56,4.42,4.56-2.43c.37.51.73,1,1.09,1.54l-4.85,2.17C733.87,367.07,733.6,366.65,733.31,366.21Zm-.29-.42q-.37-.56-.78-1.11l4.14-2.91,1.14,1.52Zm-4.79-5.69,3.18-4.23c.42.46.85.93,1.26,1.4l-3.38,3.9C728.93,360.79,728.58,360.43,728.23,360.1Zm1.41,1.44,3.43-3.82c.43.5.86,1,1.28,1.51l-3.75,3.39Q730.12,362.07,729.64,361.54Zm1.3,1.48,3.8-3.32c.43.53.85,1.05,1.26,1.59l-4.08,3c-.17-.23-.34-.45-.52-.67Zm12.32-6.08,1.69,2.22-7,3.9c-.38-.53-.77-1.05-1.17-1.57l6.47-4.55Zm-.47-.59-6.4,4.65c-.42-.54-.85-1.08-1.29-1.61l6-5.21C741.65,354.9,742.22,355.62,742.79,356.35Zm-2.2-2.76v0l-5.87,5.29c-.43-.52-.87-1-1.32-1.55l5.36-6C739.37,352.12,740,352.85,740.59,353.59Zm-2.32-2.77L733,356.9c-.42-.48-.85-.95-1.29-1.42l4.92-6.54C737.17,349.56,737.73,350.19,738.27,350.82Zm-3.6-4c.49.53,1,1.06,1.46,1.6L731.3,355c-.36-.38-.72-.75-1.09-1.12ZM730,354.33l1.06,1.11-3.15,4.33c-.28-.26-.57-.51-.85-.73Zm-8,16.78a5,5,0,0,1,.79-7.05l2.61-2.08a29.64,29.64,0,0,1,3.44,3.67,29.27,29.27,0,0,1,2.82,4.18L729,371.91A5,5,0,0,1,722,371.11Zm12.9-2.2c-.15-.32-.33-.66-.52-1l4.95-2.11.84,1.28Zm5.74-2c-.29-.44-.57-.88-.86-1.31l7.55-3.22c.42.59.83,1.18,1.24,1.78Z"/><polygon class="cls-31" points="535.02 618.09 534.85 617.85 414.73 449.86 415.47 449.32 535.42 617.07 819 561.66 995.79 335.05 996.1 335.16 1400 482.15 1400 483.02 996.1 336.14 819.51 562.5 819.35 562.53 535.02 618.09"/><polygon class="cls-31" points="534.6 619.58 534.43 619.35 414.73 449.85 415.47 449.32 535.01 618.58 818.95 567.66 996.36 342.69 1400 491.65 1400 492.52 996.66 343.78 819.45 568.5 819.28 568.53 534.6 619.58"/><polygon class="cls-31" points="534.17 621.08 534.01 620.84 414.73 449.85 415.48 449.32 534.59 620.08 818.89 573.66 996.93 350.33 997.24 350.45 1400 501.15 1400 502.02 997.23 351.43 819.38 574.51 819.21 574.54 534.17 621.08"/><polygon class="cls-31" points="533.75 622.58 414.73 449.85 415.48 449.32 534.18 621.58 818.84 579.65 997.49 357.97 997.8 358.09 1400 510.65 1400 511.52 997.79 359.07 819.32 580.51 819.14 580.54 533.75 622.58"/><polygon class="cls-31" points="533.32 624.07 533.16 623.84 414.72 449.85 415.48 449.33 533.76 623.09 818.78 585.65 998.06 365.62 998.37 365.73 1400 520.15 1400 521.01 998.35 366.71 819.26 586.51 819.08 586.54 533.32 624.07"/><polygon class="cls-31" points="532.9 625.57 532.74 625.34 414.72 449.85 415.48 449.33 533.35 624.59 818.72 591.65 998.63 373.26 998.93 373.38 1400 529.65 1400 530.51 998.91 374.36 819.19 592.52 819.01 592.54 532.9 625.57"/><polygon class="cls-31" points="532.47 627.07 532.32 626.84 414.72 449.84 415.48 449.33 532.93 626.09 818.67 597.64 999.2 380.9 999.5 381.02 1400 539.15 1400 540.01 999.48 382 819.13 598.52 532.47 627.07"/><polygon class="cls-31" points="532.05 628.56 414.72 449.84 415.48 449.33 532.51 627.6 818.61 603.64 999.76 388.54 1000.07 388.66 1400 548.65 1400 549.51 1000.04 389.64 819.06 604.52 818.88 604.54 532.05 628.56"/><polygon class="cls-31" points="531.62 630.06 531.48 629.83 414.72 449.84 415.48 449.34 532.1 629.1 818.55 609.63 1000.33 396.18 1400 558.16 1400 559.01 1000.6 397.28 819 610.53 818.81 610.54 531.62 630.06"/><polygon class="cls-31" points="531.2 631.55 531.05 631.33 414.72 449.84 415.49 449.34 531.68 630.61 818.5 615.63 1000.9 403.82 1001.2 403.95 1400 567.66 1400 568.51 1001.16 404.93 818.93 616.53 818.74 616.54 531.2 631.55"/><polygon class="cls-31" points="530.77 633.05 530.63 632.83 414.72 449.83 415.49 449.34 531.26 632.11 818.44 621.63 1001.47 411.47 1001.77 411.59 1400 577.16 1400 578.01 1001.72 412.57 818.87 622.53 818.67 622.54 530.77 633.05"/><polygon class="cls-31" points="530.35 634.54 530.21 634.32 414.71 449.83 415.49 449.34 530.85 633.61 818.39 627.62 1002.04 419.11 1002.34 419.24 1400 586.66 1400 587.51 1002.29 420.21 818.81 628.53 818.61 628.54 530.35 634.54"/><polygon class="cls-31" points="529.92 636.04 529.79 635.82 414.71 449.83 415.49 449.35 530.43 635.12 818.33 633.62 1002.6 426.75 1002.9 426.88 1400 596.16 1400 597 1002.85 427.86 818.74 634.54 818.54 634.54 529.92 636.04"/><polygon class="cls-31" points="818.68 640.54 818.47 640.54 529.5 637.53 529.37 637.32 414.71 449.83 415.49 449.35 530.01 636.62 818.27 639.62 1003.17 434.39 1003.47 434.52 1400 605.66 1400 606.5 1003.41 435.5 818.68 640.54"/><polygon class="cls-31" points="818.61 646.54 818.4 646.54 529.07 639.03 528.94 638.82 414.71 449.83 415.49 449.35 529.6 638.13 818.22 645.61 1003.74 442.04 1004.04 442.17 1400 615.16 1400 616 1003.97 443.14 818.61 646.54"/><polygon class="cls-31" points="818.55 652.55 818.34 652.54 528.65 640.53 528.52 640.32 414.71 449.82 415.49 449.35 529.18 639.63 818.16 651.61 1004.31 449.68 1004.61 449.81 1400 624.66 1400 625.5 1004.53 450.78 818.55 652.55"/><polygon class="cls-31" points="818.48 658.55 818.27 658.54 528.23 642.02 528.1 641.81 414.71 449.82 415.49 449.35 528.76 641.13 818.11 657.61 1004.88 457.32 1005.17 457.45 1400 634.16 1400 635 1005.1 458.43 818.48 658.55"/><polygon class="cls-31" points="818.42 664.55 527.8 643.52 527.68 643.31 414.71 449.82 415.5 449.35 528.35 642.64 818.05 663.6 1005.44 464.96 1005.74 465.1 1400 643.66 1400 644.5 1005.66 466.07 818.42 664.55"/><polygon class="cls-31" points="818.36 670.55 818.14 670.53 527.38 645.02 527.26 644.81 414.71 449.82 415.5 449.36 527.93 644.14 818 669.6 1006.01 472.6 1006.31 472.74 1400 653.16 1400 654 1006.22 473.71 818.36 670.55"/><polygon class="cls-31" points="818.29 676.56 818.07 676.53 526.95 646.51 526.84 646.31 414.7 449.82 415.5 449.36 527.51 645.64 817.94 675.6 1006.58 480.25 1006.87 480.38 1400 662.66 1400 663.5 1006.78 481.35 818.29 676.56"/><polygon class="cls-31" points="818.23 682.56 818 682.53 526.53 648.01 414.7 449.81 415.5 449.36 527.09 647.15 817.89 681.59 1007.15 487.89 1007.44 488.03 1400 672.16 1400 672.99 1007.35 489 818.23 682.56"/><polygon class="cls-31" points="818.16 688.56 817.93 688.53 526.1 649.5 525.99 649.3 414.7 449.81 415.5 449.36 526.68 648.65 817.83 687.59 1007.72 495.53 1008.01 495.67 1400 681.66 1400 682.49 1007.91 496.64 818.16 688.56"/><polygon class="cls-31" points="180.47 507.14 180.05 507.03 0 460.53 0 459.64 179.86 506.03 215.85 392.04 216.28 392.14 399.27 438.64 399.04 439.54 216.47 393.14 180.47 507.14"/><polygon class="cls-31" points="180.48 510.91 180.06 510.82 0 470.04 0 469.14 179.85 509.83 215.85 395.83 216.27 395.93 399.26 438.64 399.05 439.54 216.47 396.92 180.48 510.91"/><polygon class="cls-31" points="180.48 514.69 180.08 514.61 0 479.54 0 478.64 179.85 513.63 215.85 399.63 399.25 438.64 399.06 439.54 216.48 400.7 180.48 514.69"/><polygon class="cls-31" points="180.48 518.46 180.09 518.4 0 489.04 0 488.13 179.85 517.42 215.85 403.42 216.25 403.5 399.24 438.64 399.07 439.54 216.48 404.48 180.48 518.46"/><polygon class="cls-31" points="180.49 522.23 180.1 522.18 0 498.54 0 497.63 179.84 521.22 215.84 407.21 216.24 407.28 399.23 438.64 399.08 439.54 216.48 408.25 180.49 522.23"/><polygon class="cls-31" points="180.49 526.01 0 508.04 0 507.13 179.84 525.02 215.84 411 399.22 438.63 399.08 439.54 216.48 412.03 180.49 526.01"/><polygon class="cls-31" points="180.5 529.78 0 517.54 0 516.63 179.84 528.82 215.84 414.8 216.22 414.85 399.21 438.63 399.1 439.55 216.49 415.81 180.5 529.78"/><polygon class="cls-31" points="180.5 533.56 0 527.04 0 526.12 179.83 532.61 215.84 418.59 399.2 438.63 399.1 439.55 216.49 419.59 180.5 533.56"/><polygon class="cls-31" points="180.5 537.33 180.16 537.33 0 536.54 0 535.62 179.83 536.41 215.84 422.38 216.2 422.42 399.19 438.63 399.11 439.55 216.49 423.37 180.5 537.33"/><polygon class="cls-31" points="0 546.04 0 545.12 179.82 540.2 215.83 426.18 399.19 438.63 399.12 439.55 216.49 427.14 180.5 541.11 180.18 541.12 0 546.04"/><polygon class="cls-31" points="0 555.54 0 554.62 179.82 544 215.83 429.97 399.18 438.63 399.13 439.55 216.5 430.92 180.51 544.88 180.19 544.9 0 555.54"/><polygon class="cls-31" points="0 565.04 0 564.12 179.82 547.79 215.83 433.76 216.18 433.77 399.17 438.63 399.14 439.55 216.5 434.7 180.51 548.66 180.21 548.68 0 565.04"/><polygon class="cls-31" points="0 574.54 0 573.63 179.81 551.59 215.83 437.56 399.16 438.63 399.15 439.55 216.5 438.48 180.51 552.43 180.22 552.47 0 574.54"/><polygon class="cls-31" points="0 584.04 0 583.13 179.81 555.39 215.82 441.35 399.15 438.63 399.16 439.55 216.5 442.26 180.52 556.21 180.24 556.25 0 584.04"/><polygon class="cls-31" points="0 593.53 0 592.63 179.81 559.18 215.82 445.14 216.15 445.13 399.14 438.63 399.17 439.55 216.5 446.04 180.52 559.98 180.25 560.03 0 593.53"/><polygon class="cls-31" points="0 603.03 0 602.13 179.81 562.98 215.82 448.93 216.14 448.92 399.13 438.63 399.18 439.55 216.51 449.81 180.52 563.76 0 603.03"/><polygon class="cls-31" points="0 612.53 0 611.63 179.8 566.77 215.82 452.73 216.13 452.7 399.12 438.63 399.19 439.55 216.51 453.59 180.53 567.54 180.28 567.6 0 612.53"/><polygon class="cls-31" points="0 622.02 0 621.14 179.8 570.56 215.82 456.52 216.12 456.49 399.11 438.63 399.2 439.55 216.51 457.37 180.53 571.32 0 622.02"/><polygon class="cls-31" points="0 631.52 0 630.64 179.8 574.36 215.81 460.31 216.11 460.27 399.1 438.63 399.21 439.55 216.51 461.15 180.53 575.09 180.3 575.16 0 631.52"/><polygon class="cls-31" points="0 641.01 0 640.14 179.8 578.15 215.81 464.1 399.09 438.63 399.22 439.55 216.51 464.93 180.53 578.87 180.31 578.94 0 641.01"/><polygon class="cls-31" points="0 650.51 0 649.65 179.79 581.94 215.81 467.89 216.09 467.85 399.08 438.63 399.23 439.54 216.52 468.71 180.54 582.65 180.33 582.73 0 650.51"/><polygon class="cls-31" points="0 660 0 659.15 179.79 585.74 215.81 471.68 216.08 471.63 399.07 438.64 399.24 439.54 216.52 472.49 180.54 586.43 180.34 586.51 0 660"/><circle class="cls-32" cx="405.64" cy="438.95" r="34.17"/><path class="cls-33" d="M674.74,502.51c-10.52-1.68-47.11-5.45-75.8,16.38-22.29,17-33.45,41.82-31.42,70,.49,5.34,1.31,8.93,8,10.22a102.92,102.92,0,0,0,17.29,1.42c22.56,0,47.79-7,63.87-24.22,22.2-23.82,24.67-44.22,25.37-64.75C682.27,506.22,679.93,503.33,674.74,502.51Zm-98.47,92.65c-3.86-.74-4.28-1.75-4.72-6.57a84.7,84.7,0,0,1,.2-14.89c2.42-.15,5.64.59,9.83,3.19,7.92,4.92,11.22,13.91,12.57,19.63A99.73,99.73,0,0,1,576.27,595.16Zm77.49-21.58C642,586.17,625.09,593,608.09,595.44c-.8-6.78-4.18-19.18-17.74-28.24-6.81-4.54-12.4-5.19-16.69-4.3,4.07-16.06,13.42-29.9,27.73-40.79,17.49-13.31,38.14-16.64,53.43-16.89a31.37,31.37,0,0,1,7.89,5.63c8.38,8.07,11.81,16,13.14,22C673,547,666.93,559.45,653.76,573.58ZM678,511.45c-.1,3-.25,5.87-.48,8.66a47.31,47.31,0,0,0-7.25-10.63,25.21,25.21,0,0,0-4.52-3.94c3.53.27,6.38.65,8.32,1C677.27,507,678.16,508.11,678,511.45Zm-28.62,1,.36.41a1.6,1.6,0,0,1-.21,2.25,1.19,1.19,0,0,1-.23.16,1.6,1.6,0,0,1-2-.36c-.45-.55-.89-1-1.31-1.46a1.17,1.17,0,0,1-.26.1q-2.52.71-4.92,1.48c.23.26.46.52.7.81a1.69,1.69,0,0,1-.22,2.38,1.38,1.38,0,0,1-.25.17,1.68,1.68,0,0,1-2.14-.39,22.36,22.36,0,0,0-1.62-1.76q-2.88,1-5.56,2.18c.34.31.68.64,1,1a1.71,1.71,0,0,1,0,2.42,2,2,0,0,1-.34.26,1.73,1.73,0,0,1-2.08-.3,19.21,19.21,0,0,0-2-1.85c-1.94.9-3.79,1.84-5.57,2.8.36.29.73.61,1.1.94a1.71,1.71,0,0,1,.14,2.42,1.79,1.79,0,0,1-.43.35,1.73,1.73,0,0,1-2-.21,20.63,20.63,0,0,0-2.08-1.66q-2.78,1.65-5.29,3.37l.94.66a1.72,1.72,0,0,1,.36,2.4,2,2,0,0,1-.53.47,1.74,1.74,0,0,1-1.87-.11,19.9,19.9,0,0,0-1.91-1.28c-1.74,1.29-3.39,2.6-4.93,3.91.45.27.9.55,1.37.87a1.72,1.72,0,0,1,.48,2.38,1.83,1.83,0,0,1-.58.53,1.72,1.72,0,0,1-1.8-.06,20.12,20.12,0,0,0-2.19-1.3c-1.28,1.17-2.47,2.35-3.6,3.51.68.35,1.38.76,2.12,1.23a1.71,1.71,0,0,1,.51,2.37,1.58,1.58,0,0,1-.59.56,1.71,1.71,0,0,1-1.77,0,19.77,19.77,0,0,0-2.71-1.48c-1.3,1.46-2.49,2.9-3.57,4.28a25.61,25.61,0,0,1,2.71,1.52,1.72,1.72,0,0,1,.51,2.37,1.66,1.66,0,0,1-.59.56,1.71,1.71,0,0,1-1.77,0,15.9,15.9,0,0,0-3.93-1.94l.85.4s.66,8.49,7.06,2.87,13.93-13.62,29-22.7,26-12.36,26.62-14.7C654.9,513,653.34,511.59,649.42,512.41Zm-56.14,29.37a1.71,1.71,0,0,1-.36-3.41,10.74,10.74,0,0,1,3.52.21c1-1.08,2.09-2.18,3.23-3.28a7.73,7.73,0,0,0-.83,0,1.71,1.71,0,1,1-.29-3.41,10.76,10.76,0,0,1,4.26.49q2.13-1.87,4.5-3.72a6.3,6.3,0,0,0-1,0,1.71,1.71,0,1,1-.13-3.42,10.77,10.77,0,0,1,4.61.85q2.23-1.59,4.68-3.12l-.42,0a1.71,1.71,0,1,1,.18-3.42,10.49,10.49,0,0,1,4.21,1.1q2.32-1.32,4.83-2.57l-.21,0a1.71,1.71,0,0,1,.44-3.4,10.83,10.83,0,0,1,4.09,1.4q2.42-1.08,5-2.08l-.53-.13a1.7,1.7,0,1,1,.69-3.32,10.84,10.84,0,0,1,4.19,1.87c1.35-.46,2.73-.91,4.14-1.34l-.27-.06a1.6,1.6,0,0,1,.64-3.13,10.56,10.56,0,0,1,4.83,2.46c.7-.59,1.11-1.23.51-1.76-1.51-1.36-12.08-5.18-38,11.59-24,15.55-27,30.45-25.12,31.59,1.67,1,4.53-1.92,5.18-2.63a7.15,7.15,0,0,0-2-.08,1.71,1.71,0,0,1-.36-3.41,10.81,10.81,0,0,1,3,.1q1.44-1.9,3.16-3.92Z"/><path class="cls-34" d="M117.32,403.39a54.37,54.37,0,1,0,54.36,54.37A54.43,54.43,0,0,0,117.32,403.39Zm1.88,76.54c6.78-2.58,30.47-12.72,46.94-33.63a49.72,49.72,0,0,1,1.34,11.46c0,1,0,2-.1,2.95C151,483.28,128,492.88,121.48,495.24,120.34,489.46,119.62,484.36,119.2,479.93ZM84.57,443.5c5.52,2,10.29,4,14.33,5.86-1.25,7.36-4.4,32.28,4.81,56.67a50.18,50.18,0,0,1-12.78-5.64C80,475,83.26,450.56,84.57,443.5ZM72.5,435.26a50.45,50.45,0,0,1,5.65-8.79c25.23,2.52,46.13,17.18,52.93,22.46a86.32,86.32,0,0,1-12.42,7C114.52,452.79,100.3,443.07,72.5,435.26Zm87-4.66a49.81,49.81,0,0,1,5.22,10.67c-14.86,20.39-37.88,31.05-45.83,34.26a82.29,82.29,0,0,1,.27-15.18C123.9,458.42,139,451.2,159.46,430.6ZM157,427.12c-2.43,2.46-4.78,4.72-7.05,6.81-4.71-3.92-23.61-18.43-50-23.22A50.06,50.06,0,0,1,157,427.12ZM92.94,413.93c27.48,3.09,48.27,18.38,53.83,22.86-4.41,3.88-8.45,7-12.06,9.63-5.67-4.6-26.56-20.17-53.17-23.78A50.47,50.47,0,0,1,92.94,413.93ZM67.15,457.76a50,50,0,0,1,3.6-18.63q5.2,1.46,9.79,3a105.83,105.83,0,0,0,4.07,53.63A50.06,50.06,0,0,1,67.15,457.76Zm41.54,49.4c-9.49-22.75-7.1-47.28-5.82-55.87a95.66,95.66,0,0,1,12.25,7.3c-.64,3.72-2.65,20.23,4.95,49.25-.91.05-1.83.08-2.75.08A50,50,0,0,1,108.69,507.16Zm15.62.26q-1.11-4.19-2-8A105.71,105.71,0,0,0,166.19,469,50.28,50.28,0,0,1,124.31,507.42Z"/><path class="cls-35" d="M810.31,679.21a35.6,35.6,0,1,0-20.2,46A35.6,35.6,0,0,0,810.31,679.21ZM788.9,722.16a32.23,32.23,0,1,1,18.32-41.74A32,32,0,0,1,788.9,722.16Zm8.43-43a6.36,6.36,0,0,0-.64-8.42,5.72,5.72,0,0,0-4.33-1.75,5.12,5.12,0,0,0-3.75,1.91,6.37,6.37,0,0,0,.64,8.42,5.8,5.8,0,0,0,4.07,1.75h.26A5.15,5.15,0,0,0,797.33,679.12ZM795,678a3.2,3.2,0,0,1-.7.63,4,4,0,0,1-3.54-1.21,5,5,0,0,1-1.44-3.78,3.39,3.39,0,0,1,.5-.84,3.13,3.13,0,0,1,4.74,0A4,4,0,0,1,795,678Zm4.35,7.45a5.13,5.13,0,0,0-3.92,1.42,5.88,5.88,0,0,0-1.73,4.39,6.29,6.29,0,0,0,5.64,6.25l.36,0a5.07,5.07,0,0,0,3.56-1.44A5.85,5.85,0,0,0,805,691.7,6.3,6.3,0,0,0,799.32,685.44Zm-.62,9.94a3.29,3.29,0,0,1-.94-.21,5,5,0,0,1-1.74-3.66,4.1,4.1,0,0,1,1.57-3.43,2.83,2.83,0,0,1,.93-.09,4,4,0,0,1,3.45,3.92A3.17,3.17,0,0,1,798.7,695.38ZM786.22,682a5.29,5.29,0,0,0-4.08.13,6,6,0,0,0-2.53,7.9,6.34,6.34,0,0,0,3.5,3.37,5.54,5.54,0,0,0,1.91.34,5.12,5.12,0,0,0,2.17-.48,6,6,0,0,0,2.54-7.9A6.31,6.31,0,0,0,786.22,682Zm-.6,9.46a2.84,2.84,0,0,1-1.24.25,4.57,4.57,0,0,1-2.76-2.55,4.75,4.75,0,0,1-.09-3.8,2.77,2.77,0,0,1,1-.79c1.6-.75,3.59.19,4.45,2.09A3.6,3.6,0,0,1,785.62,691.43Z"/><circle class="cls-1" cx="1064" cy="565" r="83.5"/><path class="cls-36" d="M1139.79,605a86,86,0,0,0-35.49-116.28c-.47-.25-.94-.47-1.41-.71a2.6,2.6,0,0,0-.24-.47l-.3.2a85.36,85.36,0,0,0-43.49-9h-.07a86.93,86.93,0,0,0-20,3.61,85.68,85.68,0,0,0-48.2,37.41l-.16.11,0,.06a85.94,85.94,0,1,0,149.29,85Zm-19,16.57a90.52,90.52,0,0,0,8.65-29.27c1.75-14,.93-33.85-9.42-56.76,20.45,2.71,24,29.89,24.14,31.15l.21,0a80.92,80.92,0,0,1-23.58,54.9ZM1141.66,544c-5.13-7.75-13-14-24.42-14.2a143.7,143.7,0,0,0-9.27-15.58q7.54-2.11,15.56-3.68a80.19,80.19,0,0,1,17.32,30.57C1141.15,542,1141.4,543,1141.66,544Zm-22.75-38.15c-4.91,1-9.67,2.26-14.3,3.6a101.51,101.51,0,0,0-9.41-11.1,30.83,30.83,0,0,0,6.15-4.95l.36.18A80.85,80.85,0,0,1,1118.91,505.81Zm-22.84-15a37,37,0,0,1-5,3.56,74,74,0,0,0-12.22-8.91A80.39,80.39,0,0,1,1096.07,490.83Zm-55.65-3.22a80.74,80.74,0,0,1,18.51-3.36c1.8.12,13.32,1.4,27.08,13.06-1.44.78-3,1.61-4.87,2.51-12.89,6.36-32.44,8.55-49.68,10.48-12,1.34-22.91,2.57-31.07,5A80,80,0,0,1,1040.42,487.61Zm-45.73,36c6.77-4.4,21.64-6.08,37.38-7.84,17.7-2,37.76-4.23,51.51-11,2.58-1.28,4.8-2.45,6.73-3.53a92.55,92.55,0,0,1,8.68,9.88c-35.06,11.25-61.74,30-79,45.2a221.52,221.52,0,0,0-32.1,34.42c-.31-.89-.6-1.79-.88-2.7A80.25,80.25,0,0,1,994.69,523.62Zm-4.45,73.27c5.69-8.19,43.82-59.83,112.18-81.07a143.74,143.74,0,0,1,8.83,14.38c-20.27,3.51-34.77,30.93-47.59,55.2-6,11.38-11.69,22.13-16.86,27.87-8.21,9.11-22.89,15.41-28.43,17.56a79.94,79.94,0,0,1-28.13-33.94Zm97.15,44.62a80.21,80.21,0,0,1-63.26-7.07c7.26-3.11,19.23-9.11,26.77-17.48,5.63-6.24,11.2-16.78,17.64-29,11.9-22.52,26.7-50.54,44.9-52.53l.44,0c10.87,22.78,11.77,42.42,10.07,56.15-2.75,22.13-12.76,36.75-17.67,41.39h0A81.08,81.08,0,0,1,1087.39,641.51Z"/><circle class="cls-1" cx="1337" cy="464" r="29.5"/><path class="cls-37" d="M1369,468a32.71,32.71,0,1,0-58.33,15.85,33.91,33.91,0,0,0,2.8,3.17A32.71,32.71,0,0,0,1369,468Zm-4.77-.61a27.68,27.68,0,0,1-8.91,17.1l.13-1.73a.3.3,0,0,0-.25-.31l-.19,0a.32.32,0,0,0-.35.21l-.44,1.69a2.38,2.38,0,0,0,0,.26l-.12.74a27.06,27.06,0,0,1-1.84-2.59l.62-1.83a2.5,2.5,0,0,0,.07-.26l.41-1.7a.3.3,0,0,0-.2-.34l-.19-.06a.3.3,0,0,0-.37.15l-.7,1.6a1.84,1.84,0,0,0-.09.25l-.31.9a28.07,28.07,0,0,1-1.41-3l.92-1.74a2.56,2.56,0,0,0,.11-.24l.68-1.62a.31.31,0,0,0-.14-.37l-.18-.09a.3.3,0,0,0-.38.09l-.95,1.47a1.76,1.76,0,0,0-.14.23l-.45.85a26.79,26.79,0,0,1-.83-3l1-1.3a1.07,1.07,0,0,0,.15-.22l.94-1.47a.3.3,0,0,0-.08-.39l-.15-.12a.32.32,0,0,0-.4,0l-1.18,1.29-.18.2-.37.49a28.4,28.4,0,0,1-.29-3.33l1-.94.19-.19,1.18-1.29a.3.3,0,0,0,0-.4l-.13-.14a.28.28,0,0,0-.39,0l-1.39,1.07-.2.17-.25.22c0-.78.1-1.57.2-2.36,0-.24.07-.49.1-.73l.91-.58.21-.15,1.39-1.07a.32.32,0,0,0,0-.4l-.1-.16a.32.32,0,0,0-.39-.12l-1.54.81-.23.14h0a22.85,22.85,0,0,1,.72-2.61l1-.44.24-.12,1.55-.82a.3.3,0,0,0,.12-.38l-.08-.18a.29.29,0,0,0-.35-.17l-1.67.53-.25.09-.08,0c.33-.84.71-1.66,1.12-2.46l1-.24.26-.07,1.66-.55a.31.31,0,0,0,.18-.36l0-.19a.32.32,0,0,0-.33-.23l-1.73.25-.26.05h0a25.33,25.33,0,0,1,1.44-2.16l1.08-.07.27,0,1.72-.28a.3.3,0,0,0,.24-.32v-.19a.32.32,0,0,0-.28-.29l-1.75,0h-.34c.56-.67,1.15-1.33,1.78-1.95l1.47.13h2a.3.3,0,0,0,.28-.28l0-.2a.31.31,0,0,0-.23-.32l-1.72-.31-.27,0-.47,0c.6-.54,1.24-1.05,1.89-1.54A27.69,27.69,0,0,1,1364.26,467.4Zm-55.36-7.09a27.83,27.83,0,0,1,10.71-18.58h0a26.22,26.22,0,0,1,1.87,2.5l-.46-.08-.27,0L1319,444a.32.32,0,0,0-.31.25l0,.2a.31.31,0,0,0,.21.34l1.69.44.26.05,1.46.25c.45.76.85,1.54,1.23,2.34l-.07,0-.26-.08-1.7-.41a.32.32,0,0,0-.34.21l-.06.18a.3.3,0,0,0,.15.37l1.6.7.25.1,1,.35c.32.8.6,1.62.85,2.45h0l-.24-.11-1.61-.68a.3.3,0,0,0-.37.15l-.09.17a.31.31,0,0,0,.09.39l1.46.95.23.13.93.49a26.93,26.93,0,0,1,.47,2.66l-.07,0-.22-.15-1.48-.94a.31.31,0,0,0-.39.08l-.12.16a.32.32,0,0,0,0,.4l1.29,1.18.21.17.9.69a24.48,24.48,0,0,1,0,2.71h0l-.19-.18-1.29-1.18a.3.3,0,0,0-.4,0l-.14.13a.28.28,0,0,0,0,.39l1.07,1.39a1.63,1.63,0,0,0,.17.2l.73.79-.09.74c-.1.78-.23,1.56-.4,2.33l-.18-.28a1.77,1.77,0,0,0-.16-.22l-1.07-1.38a.29.29,0,0,0-.39-.05l-.17.1a.31.31,0,0,0-.11.38l.81,1.55a1.76,1.76,0,0,0,.14.23l.75,1.17a26.78,26.78,0,0,1-1.12,3.15l-.24-.57a2.56,2.56,0,0,0-.11-.24l-.82-1.54a.3.3,0,0,0-.38-.12l-.18.07a.31.31,0,0,0-.18.36l.54,1.66a1.06,1.06,0,0,0,.09.25l.64,1.52a27.36,27.36,0,0,1-1.57,2.72l-.22-.93a2,2,0,0,0-.07-.26l-.55-1.66a.31.31,0,0,0-.36-.18l-.18,0a.32.32,0,0,0-.24.33l.25,1.73c0,.08,0,.17.05.26l.45,1.92a26.79,26.79,0,0,1-2.12,2.53l-.07-.95a1.22,1.22,0,0,0,0-.26l-.27-1.73a.31.31,0,0,0-.32-.24l-.19,0a.32.32,0,0,0-.29.28l0,1.75a2.35,2.35,0,0,0,0,.26l.13,1.93a26.84,26.84,0,0,1-2.43,2.05l.07-.75a2.44,2.44,0,0,0,0-.27V477.6a.29.29,0,0,0-.27-.29l-.2,0a.31.31,0,0,0-.32.23l-.31,1.73a2,2,0,0,0,0,.26l-.07.84A27.71,27.71,0,0,1,1308.9,460.31ZM1333,491.53a27.68,27.68,0,0,1-17.43-9.28l.31-.21.58-.44,1.19.11h2a.3.3,0,0,0,.29-.28l0-.19a.31.31,0,0,0-.23-.32l-1.72-.31-.27,0h0a30.15,30.15,0,0,0,2.44-2.35l.85-.06a1.24,1.24,0,0,0,.27,0l1.73-.27a.31.31,0,0,0,.23-.32v-.19a.31.31,0,0,0-.28-.29l-1.74,0a27.79,27.79,0,0,0,2-2.67l.86-.21.26-.07,1.66-.55a.3.3,0,0,0,.18-.35l0-.19a.31.31,0,0,0-.32-.24l-1.73.25h0a26.82,26.82,0,0,0,1.44-2.89l1-.42a1.33,1.33,0,0,0,.24-.11l1.55-.82a.3.3,0,0,0,.12-.38l-.08-.18a.29.29,0,0,0-.35-.18l-1.67.54-.21.08a27.55,27.55,0,0,0,.86-2.85l1.21-.77.22-.15,1.38-1.08a.3.3,0,0,0,0-.39l-.1-.16a.32.32,0,0,0-.39-.12l-1.54.81-.23.14-.26.16q.17-.83.27-1.65c0-.34.08-.68.11-1l1.31-1.21.19-.19,1.18-1.3a.31.31,0,0,0,0-.4l-.13-.14a.3.3,0,0,0-.4,0l-1.38,1.06-.2.17-.45.42c0-.87,0-1.74,0-2.6l1.21-1.58a1.7,1.7,0,0,0,.15-.22l.94-1.47a.31.31,0,0,0-.08-.39l-.16-.12a.32.32,0,0,0-.4,0l-1.18,1.29-.17.2-.46.61a24.86,24.86,0,0,0-.43-2.56l.94-1.77a2.56,2.56,0,0,0,.11-.24l.68-1.61a.31.31,0,0,0-.14-.37l-.17-.09a.3.3,0,0,0-.39.09l-1,1.46c0,.08-.1.15-.14.23l-.34.65c-.21-.75-.46-1.5-.73-2.24l.67-2a2.41,2.41,0,0,0,.08-.25l.41-1.7a.32.32,0,0,0-.21-.35l-.18-.06a.31.31,0,0,0-.37.15l-.7,1.6a2.6,2.6,0,0,0-.1.25l-.25.76a29.38,29.38,0,0,0-1.49-2.9l.24-1.44,0-.27.14-1.74a.32.32,0,0,0-.26-.31l-.19,0a.31.31,0,0,0-.34.21l-.44,1.69-.06.26,0,.17c-.55-.82-1.14-1.63-1.78-2.41l-.1-.12v-.07a27.85,27.85,0,0,1,35.19,3.41c.57.57,1.1,1.17,1.63,1.79-.69.52-1.36,1.06-2,1.62v-.17a2.45,2.45,0,0,0,0-.27V445.3a.3.3,0,0,0-.28-.28l-.2,0a.3.3,0,0,0-.32.23l-.31,1.72,0,.27-.13,1.45a27.64,27.64,0,0,0-2.17,2.44l-.06-.8,0-.27-.27-1.73a.31.31,0,0,0-.32-.23h-.2a.3.3,0,0,0-.28.28l0,1.75c0,.09,0,.18,0,.26l.15,2.12c-.45.64-.88,1.31-1.27,2l-.17-.72a2.5,2.5,0,0,0-.07-.26l-.55-1.66a.32.32,0,0,0-.36-.18l-.19.05a.31.31,0,0,0-.23.32l.25,1.73a2.38,2.38,0,0,0,0,.26l.46,2c-.39.77-.74,1.56-1.06,2.37l-.29-.71c0-.08-.07-.16-.12-.24l-.81-1.54a.31.31,0,0,0-.38-.12l-.18.07a.31.31,0,0,0-.18.36l.53,1.66a1.86,1.86,0,0,0,.1.25l.77,1.84c-.26.82-.49,1.66-.68,2.5l-.33-.51c0-.07-.1-.15-.16-.22l-1.07-1.38a.29.29,0,0,0-.39-.05l-.17.1a.31.31,0,0,0-.11.38l.81,1.55a1.76,1.76,0,0,0,.14.23l1,1.51-.15,1c-.07.56-.12,1.11-.16,1.67l-.2-.23-.19-.18-1.29-1.18a.32.32,0,0,0-.4,0l-.14.14a.28.28,0,0,0,0,.39l1.07,1.39a1.63,1.63,0,0,0,.17.2l1,1.05a29.26,29.26,0,0,0,.12,3l-.19-.13-1.47-.94a.31.31,0,0,0-.39.09l-.12.15a.3.3,0,0,0,0,.4l1.29,1.18.2.17.85.66a31.14,31.14,0,0,0,.67,3.16l0,0-1.61-.68a.31.31,0,0,0-.37.15l-.09.17a.31.31,0,0,0,.08.39l1.47,1,.23.14.78.41a27.91,27.91,0,0,0,1.24,3.08l-1.69-.4a.29.29,0,0,0-.34.2l-.07.18a.31.31,0,0,0,.15.37l1.6.7.25.1.81.27a29.93,29.93,0,0,0,1.78,2.89h0l-.26,0-1.74-.13a.3.3,0,0,0-.31.25l0,.19a.31.31,0,0,0,.2.35l1.7.43a2,2,0,0,0,.26.06l1.18.2.27.34A27.71,27.71,0,0,1,1333,491.53Z"/><path class="cls-38" d="M417,452.47a5,5,0,0,1-4.8-6.28L431,376.07a5.48,5.48,0,0,1,8.37-3.1L490,407.51h0a5.47,5.47,0,0,1-.64,9.41l-70,35A5.15,5.15,0,0,1,417,452.47ZM436.31,377a.86.86,0,0,0-.17,0,.47.47,0,0,0-.29.32l-18.79,70.12,70-35a.45.45,0,0,0,.25-.38.44.44,0,0,0-.2-.42h0L436.57,377.1A.41.41,0,0,0,436.31,377Z"/><path class="cls-39" d="M713.12,506.53a4,4,0,0,1-3.84-5L714,483.88a4.48,4.48,0,0,1,6.84-2.53L733,489.64a4.48,4.48,0,0,1-.53,7.69l-17.55,8.77A3.93,3.93,0,0,1,713.12,506.53Zm5.21-23a1.54,1.54,0,0,0-.52.09,1.47,1.47,0,0,0-.91,1l-4.72,17.63a1,1,0,0,0,1.39,1.13l17.55-8.78a1.46,1.46,0,0,0,.17-2.52l-12.14-8.3A1.46,1.46,0,0,0,718.33,483.57Z"/><path class="cls-40" d="M816.14,474.51l-14.33-9.79a3,3,0,0,0-4.54,1.69L791.74,487a2.49,2.49,0,0,0,3.51,2.87l20.54-10.27A3,3,0,0,0,816.14,474.51Z"/><path class="cls-41" d="M1243.14,599l-14.33-9.79a3,3,0,0,0-4.54,1.68l-5.53,20.61a2.49,2.49,0,0,0,3.51,2.87l20.54-10.27A3,3,0,0,0,1243.14,599Z"/><path class="cls-42" d="M902.63,647.2a3,3,0,0,1-2.92-3.83l5.52-20.61a3.53,3.53,0,0,1,5.39-2L925,630.55a3.53,3.53,0,0,1-.41,6.06L904,646.87A3.07,3.07,0,0,1,902.63,647.2Zm6-26a2.54,2.54,0,0,0-.85.15A2.4,2.4,0,0,0,906.3,623l-5.53,20.62a1.94,1.94,0,0,0,2.74,2.23L924,635.62a2.42,2.42,0,0,0,.29-4.16L910,621.67A2.44,2.44,0,0,0,908.64,621.25Z"/><path class="cls-43" d="M585.55,503.07l-35.2-24a3,3,0,0,0-4.54,1.68l-13.16,49.12a2.49,2.49,0,0,0,3.51,2.87l49-24.52A3,3,0,0,0,585.55,503.07Z"/><path class="cls-44" d="M1155.56,388.1a3.27,3.27,0,0,1-3.14-4.11l8.74-32.6a3.74,3.74,0,0,1,5.72-2.12L1190,365.05a3.75,3.75,0,0,1-.44,6.44L1157,387.75A3.33,3.33,0,0,1,1155.56,388.1Zm9.22-37.94a2.28,2.28,0,0,0-.77.14,2.14,2.14,0,0,0-1.36,1.49l-8.74,32.6a1.72,1.72,0,0,0,2.42,2l32.53-16.27a2.19,2.19,0,0,0,.26-3.77L1166,350.54A2.23,2.23,0,0,0,1164.78,350.16Z"/><path class="cls-45" d="M1087.06,443.69a2.86,2.86,0,0,1-2.75-3.6l2.84-10.6a3.34,3.34,0,0,1,2.07-2.27,3.28,3.28,0,0,1,3,.38l7,4.78a3.33,3.33,0,0,1-.39,5.74l-10.53,5.26A2.81,2.81,0,0,1,1087.06,443.69Zm3.32-15.94a2.65,2.65,0,0,0-.91.16,2.58,2.58,0,0,0-1.61,1.77l-2.84,10.6a2.12,2.12,0,0,0,3,2.45l10.53-5.27a2.58,2.58,0,0,0,1.43-2.15,2.55,2.55,0,0,0-1.13-2.32l-7-4.78A2.53,2.53,0,0,0,1090.38,427.75Z"/><path class="cls-46" d="M891.4,470.46a3.31,3.31,0,0,1-3.17-4.15L897.44,432a3.77,3.77,0,0,1,5.77-2.14l24.38,16.65a3.77,3.77,0,0,1-.44,6.49l-34.27,17.14A3.38,3.38,0,0,1,891.4,470.46Zm9.69-39.68a2.21,2.21,0,0,0-.76.13,2.15,2.15,0,0,0-1.34,1.47l-9.2,34.35a1.68,1.68,0,0,0,2.37,1.94l34.27-17.14a2.16,2.16,0,0,0,.26-3.72L902.3,431.16A2.09,2.09,0,0,0,901.09,430.78Z"/><path class="cls-47" d="M541.3,213.43,528,204.31a3,3,0,0,0-4.54,1.68l-5.16,19.27a2.49,2.49,0,0,0,3.51,2.87l19.2-9.6A3,3,0,0,0,541.3,213.43Z"/><path class="cls-48" d="M1340,542.83l-7-4.75a3,3,0,0,0-4.54,1.69l-2.82,10.52a2.48,2.48,0,0,0,3.51,2.87l10.45-5.23A3,3,0,0,0,1340,542.83Z"/><path class="cls-49" d="M100.73,291.93l-6.32,23.58L88.09,339.1l23.58-11.79,23.59-11.79L118,303.72ZM80.36,358.56A10,10,0,0,1,70.71,346l17.18-64.12a10.48,10.48,0,0,1,16-5.93l46.18,31.54a10.46,10.46,0,0,1-1.23,18l-64,32A10,10,0,0,1,80.36,358.56Z"/><path class="cls-50" d="M100.12,290.66l-6.7,25-6.62,24.7a1.28,1.28,0,0,0,0,.38,1.3,1.3,0,0,0,.36-.13l24.72-12.35L136.3,316a6.62,6.62,0,0,0,.61-.39,4.6,4.6,0,0,0-.55-.47L118.6,303l-17.36-11.86s-.35-.22-.37-.22-.22-.12-.23-.11S100.14,290.59,100.12,290.66Zm-19.76,67a9.07,9.07,0,0,1-8.76-11.41l17.18-64.12a9.56,9.56,0,0,1,14.61-5.42l46.18,31.54a9.55,9.55,0,0,1-1.12,16.43l-64,32A8.93,8.93,0,0,1,80.36,357.64Z"/><path class="cls-51" d="M99.51,289.4l-7.08,26.41-7,26.17c0,.06-.06.36,0,.4s.33-.06.39-.09L112,329.2l26-13a2.62,2.62,0,0,0,.59-.47,2.41,2.41,0,0,0-.53-.55l-18.82-12.86L100.7,289.69a2.21,2.21,0,0,0-.4-.21s-.23-.08-.26-.07S99.55,289.26,99.51,289.4ZM80.36,356.73a8.17,8.17,0,0,1-7.88-10.27l17.18-64.11a8.64,8.64,0,0,1,13.21-4.9L149.05,309a8.63,8.63,0,0,1-1,14.85l-64,32A8.09,8.09,0,0,1,80.36,356.73Z"/><path class="cls-52" d="M98.9,288.13,91.44,316,84,343.59c0,.1-.05.37,0,.43s.33,0,.43,0l27.63-13.82,27.5-13.74a1.67,1.67,0,0,0,.57-.56,1.63,1.63,0,0,0-.49-.63l-19.89-13.58-19.65-13.43a1.6,1.6,0,0,0-.45-.2c-.07,0-.23-.05-.27,0S99,287.92,98.9,288.13ZM80.36,355.81a7.24,7.24,0,0,1-7-9.11l17.18-64.12a7.71,7.71,0,0,1,11.81-4.37l46.17,31.54a7.71,7.71,0,0,1-.9,13.27l-64,32A7.11,7.11,0,0,1,80.36,355.81Z"/><path class="cls-53" d="M98.29,286.86,90.46,316.1l-7.8,29.11a.49.49,0,0,0,.07.46.53.53,0,0,0,.46,0l29.1-14.55,29-14.5a1.25,1.25,0,0,0,.56-.64,1.17,1.17,0,0,0-.47-.7l-21-14.32-20.79-14.2a1.2,1.2,0,0,0-.48-.2,1.39,1.39,0,0,0-.29,0C98.74,286.58,98.36,286.58,98.29,286.86Zm-17.94,68a6.32,6.32,0,0,1-6.09-8l17.18-64.12a6.79,6.79,0,0,1,10.4-3.86L148,310.5a6.8,6.8,0,0,1-.8,11.7l-64,32A6.34,6.34,0,0,1,80.35,354.9Z"/><path class="cls-54" d="M97.68,285.6l-8.21,30.64-8.2,30.59a.49.49,0,0,0,.12.48.46.46,0,0,0,.49,0l30.56-15.28L143,316.79a1,1,0,0,0,.55-.72,1,1,0,0,0-.45-.78l-22-15-21.94-15a1,1,0,0,0-.83-.15A.77.77,0,0,0,97.68,285.6ZM80.35,354a5.4,5.4,0,0,1-5.21-6.8l17.18-64.12a5.88,5.88,0,0,1,9-3.34l46.18,31.54a5.88,5.88,0,0,1-.69,10.12l-64,32A5.35,5.35,0,0,1,80.35,354Z"/><path class="cls-55" d="M98,283.61a1,1,0,0,0-.34.06,1,1,0,0,0-.6.66l-8.59,32.06-8.59,32.06a.48.48,0,0,0,.68.56l32-16,32-16a1,1,0,0,0,.53-.8,1,1,0,0,0-.42-.87l-23.09-15.77L98.55,283.78A.94.94,0,0,0,98,283.61ZM80.35,353.07a4.49,4.49,0,0,1-2.83-1A4.44,4.44,0,0,1,76,347.41L93.21,283.3a5,5,0,0,1,7.6-2.82L147,312a5,5,0,0,1-.58,8.54l-64,32A4.38,4.38,0,0,1,80.35,353.07Z"/><path class="cls-56" d="M691.84,301.18ZM659.4,324a6.88,6.88,0,0,1-6.61-8.65l9-33.51A7.34,7.34,0,0,1,673,277.71L696.78,294a7.35,7.35,0,0,1-.86,12.63L662.48,323.3A6.81,6.81,0,0,1,659.4,324Zm10.31-38-7.38,27.53,27.53-13.76Z"/><path class="cls-57" d="M687.72,298.2a.29.29,0,0,1,.19-.21h.1a.26.26,0,0,1,.17,0l2,1.35.12.08,1.86,1.28a.28.28,0,0,1,.13.26.31.31,0,0,1-.16.25l-.21.11-2.58,1.29-.21.1L686.53,304a.2.2,0,0,1-.23,0,.21.21,0,0,1-.08-.22l.36-1.32L687,301V301l.37-1.39ZM659.4,323.5a6.33,6.33,0,0,1-6.1-8l9-33.52a6.82,6.82,0,0,1,10.42-3.86l23.78,16.24a6.81,6.81,0,0,1-.8,11.71l-33.44,16.72A6.28,6.28,0,0,1,659.4,323.5Zm11.38-35.14-6.15,22.94,22.94-11.47Z"/><path class="cls-58" d="M683.6,295.22a.61.61,0,0,1,.37-.41l.21,0a.59.59,0,0,1,.34.1l4,2.71.24.16,3.72,2.54a.61.61,0,0,1-.07,1l-.42.21-5.15,2.57-.42.21-5.15,2.58a.44.44,0,0,1-.62-.51l.7-2.64.77-2.85,0-.09.75-2.79ZM659.4,323a5.81,5.81,0,0,1-5.58-7.3l9-33.52a6.28,6.28,0,0,1,9.6-3.56l23.77,16.24a6.27,6.27,0,0,1-.73,10.8L662,322.34A5.76,5.76,0,0,1,659.4,323Zm12.45-32.3L666.93,309l18.35-9.18Z"/><path class="cls-59" d="M679.48,292.24a.9.9,0,0,1,.56-.61.85.85,0,0,1,.31-.06,1,1,0,0,1,.51.16l5.94,4.06.36.25,5.59,3.81a.9.9,0,0,1-.11,1.55l-.63.32-7.73,3.86-.63.32-7.73,3.86a.63.63,0,0,1-.71-.08A.65.65,0,0,1,675,309l1.06-4,1.15-4.28,0-.14,1.12-4.18ZM659.4,322.43a5.26,5.26,0,0,1-5.06-6.63l9-33.51A5.73,5.73,0,0,1,672.1,279l23.77,16.23a5.74,5.74,0,0,1-.67,9.88l-33.43,16.72A5.29,5.29,0,0,1,659.4,322.43ZM672.91,293l-3.68,13.76L683,299.85Z"/><path class="cls-60" d="M675.36,289.27a1.17,1.17,0,0,1,.74-.82,1.25,1.25,0,0,1,.42-.08,1.29,1.29,0,0,1,.68.21l7.92,5.42.48.32,7.45,5.09a1.19,1.19,0,0,1,.52,1.07,1.22,1.22,0,0,1-.66,1l-.84.42-10.31,5.15-.85.42-10.29,5.15a.88.88,0,0,1-1.25-1l1.42-5.28,1.53-5.71,0-.18,1.49-5.58Zm-16,32.63a4.75,4.75,0,0,1-4.55-6l9-33.51a5.21,5.21,0,0,1,8-2.95l23.77,16.24a5.2,5.2,0,0,1-.61,8.95l-33.43,16.72A4.8,4.8,0,0,1,659.4,321.9ZM674,295.27l-2.46,9.18,9.18-4.59Z"/><path class="cls-61" d="M671.24,286.29a1.49,1.49,0,0,1,.93-1,1.39,1.39,0,0,1,.53-.1,1.47,1.47,0,0,1,.84.27l9.9,6.76.6.41,9.31,6.36a1.48,1.48,0,0,1,.65,1.34,1.49,1.49,0,0,1-.83,1.24l-1,.52-12.88,6.45-1.06.53-12.87,6.43a1.07,1.07,0,0,1-1.19-.13,1.09,1.09,0,0,1-.36-1.13l1.77-6.6,1.91-7.14.06-.23,1.87-7ZM659.4,321.36a4.2,4.2,0,0,1-4-5.28l9-33.51a4.68,4.68,0,0,1,7.15-2.65l23.77,16.24a4.67,4.67,0,0,1-.55,8l-33.43,16.72A4.27,4.27,0,0,1,659.4,321.36Zm15.65-23.79-1.23,4.59,4.59-2.29Z"/><path class="cls-62" d="M668.87,282a1.72,1.72,0,0,0-.63.12,1.76,1.76,0,0,0-1.12,1.22l-4.49,16.76-4.49,16.75a1.33,1.33,0,0,0,.44,1.37,1.3,1.3,0,0,0,1.42.15L676.72,310l16.72-8.36a1.79,1.79,0,0,0,.21-3.09l-11.89-8.12-11.88-8.12A1.8,1.8,0,0,0,668.87,282Zm-9.47,38.85a3.66,3.66,0,0,1-3.51-4.6l9-33.51a4.13,4.13,0,0,1,6.32-2.35L695,296.6a4.13,4.13,0,0,1-.49,7.11l-33.43,16.72A3.73,3.73,0,0,1,659.4,320.82Z"/><path class="cls-63" d="M344,562.19ZM238,625.5a14.83,14.83,0,0,1-14.34-18.67l29.92-111.65A15.31,15.31,0,0,1,277,486.5l81,55.3a15.32,15.32,0,0,1-1.79,26.35L244.61,623.94A14.8,14.8,0,0,1,238,625.5Zm36-111.14L253.18,592l77.67-38.84Z"/><path class="cls-64" d="M331.44,551.77l6.68,4.56,1.05.72,5.63,3.84-2.19,1.1-6.93,3.47L326.56,570l1.22-4.56L329,560.9l1.22-4.57ZM238,624a13.33,13.33,0,0,1-12.88-16.77L255,495.57a13.81,13.81,0,0,1,21.12-7.83l81,55.31a13.81,13.81,0,0,1-1.62,23.75L243.93,622.59A13.33,13.33,0,0,1,238,624ZM277,520.86l-17.35,64.73,64.73-32.36Z"/><path class="cls-65" d="M318.86,541.35l13.36,9.12,2.11,1.44,11.25,7.69-4.38,2.19-13.86,6.93-18.25,9.13,2.45-9.13L314,559.6l2.44-9.13ZM238,622.49a11.83,11.83,0,0,1-11.41-14.88L256.47,496a12.3,12.3,0,0,1,18.82-7l81,55.31a12.29,12.29,0,0,1-1.43,21.15L243.26,621.24A12,12,0,0,1,238,622.49Zm42.11-95.12L266.2,579.15,318,553.26Z"/><path class="cls-66" d="M306.29,530.93l20,13.69,3.16,2.15,16.88,11.53-6.57,3.28L319,572l-27.36,13.69L295.29,572,299,558.3l3.66-13.68ZM238,621A10.32,10.32,0,0,1,228,608l29.91-111.65a10.79,10.79,0,0,1,16.51-6.11l81,55.3a10.79,10.79,0,0,1-1.26,18.56L242.58,619.89A10.3,10.3,0,0,1,238,621Zm45.15-87.1-10.4,38.83,38.83-19.42Z"/><path class="cls-67" d="M293.71,520.51l26.71,18.25,4.21,2.87L347.13,557l-8.75,4.38-27.74,13.87-36.48,18.24L279,575.25,283.93,557l4.89-18.24Zm-55.75,99a8.81,8.81,0,0,1-8.49-11.08l29.92-111.65a9.28,9.28,0,0,1,14.2-5.26l81,55.31a9.28,9.28,0,0,1-1.08,16L241.91,618.54A8.94,8.94,0,0,1,238,619.47Zm48.21-79.09-6.94,25.89,25.89-12.94Z"/><path class="cls-68" d="M281.13,510.09l33.39,22.81,5.26,3.59,28.13,19.21L337,561.18,302.3,578.51l-45.61,22.81,6.11-22.81,6.11-22.81L275,532.9ZM238,618a7.3,7.3,0,0,1-7-9.18l29.92-111.65a7.77,7.77,0,0,1,11.89-4.4l81,55.3a7.77,7.77,0,0,1-.91,13.37L241.23,617.19A7.3,7.3,0,0,1,238,618Zm51.25-71.07-3.47,12.94,12.95-6.47Z"/><path class="cls-69" d="M268.55,499.67l-14.67,54.74-14.66,54.73L294,581.77l54.74-27.36L308.62,527ZM238,616.46a5.81,5.81,0,0,1-5.57-7.29l29.92-111.64a6.26,6.26,0,0,1,9.58-3.55l81,55.3a6.27,6.27,0,0,1-.73,10.77L240.56,615.84A5.91,5.91,0,0,1,238,616.46Z"/><path class="cls-70" d="M1026,520.89a.73.73,0,0,0-.23,0,.65.65,0,0,0-.4.44l-3.58,13.38a.14.14,0,0,0,.05.17.15.15,0,0,0,.18,0l13.3-6.66a.59.59,0,0,0,.36-.53.63.63,0,0,0-.28-.58l-9-6.17A.6.6,0,0,0,1026,520.89Zm-4.07,18.72a4.81,4.81,0,0,1-4.63-6.06l3.59-13.39a5.29,5.29,0,0,1,8.09-3l9,6.18a5.29,5.29,0,0,1-.62,9.1l-13.31,6.65A4.77,4.77,0,0,1,1021.94,539.61Z"/><path class="cls-71" d="M1026,520.6a1.08,1.08,0,0,0-.33.06.91.91,0,0,0-.57.63l-3.59,13.39a.44.44,0,0,0,.63.51l13.31-6.65a.93.93,0,0,0,.11-1.6l-9-6.17A.89.89,0,0,0,1026,520.6Zm-4.07,18.72a4.53,4.53,0,0,1-4.36-5.7l3.59-13.38a5,5,0,0,1,7.66-2.84l9,6.17a5,5,0,0,1-.59,8.61l-13.3,6.66A4.66,4.66,0,0,1,1021.94,539.32Z"/><path class="cls-72" d="M1026,520.32a1.22,1.22,0,0,0-.43.08,1.16,1.16,0,0,0-.74.82l-3.59,13.38a.71.71,0,0,0,.24.76.7.7,0,0,0,.79.08l13.31-6.65a1.18,1.18,0,0,0,.66-1,1.2,1.2,0,0,0-.52-1.09l-9-6.17A1.18,1.18,0,0,0,1026,520.32ZM1021.94,539a4.25,4.25,0,0,1-2.67-1,4.2,4.2,0,0,1-1.41-4.39l3.58-13.38a4.72,4.72,0,0,1,7.23-2.68l9,6.18a4.72,4.72,0,0,1-.55,8.12l-13.31,6.65A4.2,4.2,0,0,1,1021.94,539Z"/><path class="cls-73" d="M1026,520a1.53,1.53,0,0,0-1.45,1.12L1021,534.53a1,1,0,0,0,.33,1.05,1,1,0,0,0,1.1.12l13.3-6.66a1.46,1.46,0,0,0,.83-1.23,1.49,1.49,0,0,0-.65-1.34l-9-6.17A1.47,1.47,0,0,0,1026,520Zm-4.07,18.72a4,4,0,0,1-3.81-5l3.59-13.39a4.43,4.43,0,0,1,6.79-2.51l9,6.17a4.45,4.45,0,0,1-.52,7.64l-13.31,6.65A4,4,0,0,1,1021.94,538.75Z"/><path class="cls-74" d="M1026,519.75a1.88,1.88,0,0,0-.62.11,1.76,1.76,0,0,0-1.1,1.21l-3.59,13.39a1.28,1.28,0,0,0,.43,1.34,1.26,1.26,0,0,0,1.4.15l13.31-6.65a1.77,1.77,0,0,0,1-1.47,1.75,1.75,0,0,0-.77-1.59l-9-6.18A1.76,1.76,0,0,0,1026,519.75Zm-4.07,18.72a3.67,3.67,0,0,1-3.53-4.63l3.58-13.38a4.16,4.16,0,0,1,6.36-2.36l9,6.17a4.16,4.16,0,0,1-.49,7.15l-13.3,6.66A3.78,3.78,0,0,1,1021.94,538.47Z"/><path class="cls-75" d="M1026,519.47a2,2,0,0,0-.72.13A2,2,0,0,0,1024,521l-3.58,13.38A1.54,1.54,0,0,0,1021,536a1.57,1.57,0,0,0,1.71.19l13.31-6.66a2.07,2.07,0,0,0,.24-3.55l-9-6.17A2,2,0,0,0,1026,519.47Zm-4.07,18.72a3.42,3.42,0,0,1-2.13-.77,3.36,3.36,0,0,1-1.13-3.51l3.59-13.38a3.86,3.86,0,0,1,5.92-2.19l9,6.17a3.87,3.87,0,0,1-.45,6.66l-13.31,6.65A3.35,3.35,0,0,1,1021.94,538.19Z"/><path class="cls-76" d="M1026,519.18a2.37,2.37,0,0,0-.82.15,2.33,2.33,0,0,0-1.45,1.59l-3.59,13.39a1.86,1.86,0,0,0,2.64,2.15l13.3-6.65a2.34,2.34,0,0,0,.28-4l-9-6.18A2.34,2.34,0,0,0,1026,519.18ZM1022,537.9a3.12,3.12,0,0,1-2-.7,3.06,3.06,0,0,1-1-3.21l3.58-13.39a3.59,3.59,0,0,1,5.49-2l9,6.17a3.56,3.56,0,0,1,1.55,3.21,3.52,3.52,0,0,1-2,3l-13.31,6.66A3.15,3.15,0,0,1,1022,537.9Z"/><path class="cls-77" d="M422.92,421.84l-.05,0a.51.51,0,0,0-.16-.09.56.56,0,0,0-.6.15l-.23.24a.55.55,0,0,0,0,.78l4.06,3.63a.57.57,0,0,0,.79,0l.22-.24a.54.54,0,0,0,.09-.6.4.4,0,0,0-.1-.15l-.08-.07h0l-2-1.77-2-1.8Zm-7.48,12h0l1.77,4.11s0,0,0,0h0a.78.78,0,0,0,1,.34.75.75,0,0,0,.5-.73.3.3,0,0,0,0-.21l-.24-.54-1-2.26L417,433.3h0l0-.06h0l0,0a.31.31,0,0,0-.15-.17.82.82,0,0,0-.88-.15.71.71,0,0,0-.48.92Zm6-7.13.21-.26a.53.53,0,0,0,.07-.6.35.35,0,0,0-.12-.15l0,0,0,0h0l-4.17-3.41h0l0,0a.38.38,0,0,0-.17-.08.54.54,0,0,0-.59.17l-.21.25a.53.53,0,0,0,.07.77l4.22,3.46A.56.56,0,0,0,421.47,426.7Zm-25.42-9.05h0l2.6,3.62a0,0,0,0,1,0,0v0a.85.85,0,0,0,1.09.18.65.65,0,0,0,.35-.76.29.29,0,0,0-.05-.2l0,0h0l0,0h0l0,0h0l-1.09-1.52-.53-.73-.95-1.33a.45.45,0,0,0-.19-.14.9.9,0,0,0-.91,0A.66.66,0,0,0,396.05,417.65Zm24-.27a.38.38,0,0,0-.17-.08.56.56,0,0,0-.59.18l-.21.25a.56.56,0,0,0,.09.78l4.26,3.41a.58.58,0,0,0,.79-.08l.21-.26a.55.55,0,0,0,.05-.61.36.36,0,0,0-.11-.14l-2.16-1.73-2.13-1.7Zm-15.79-1.48h0l2.6,3.77v0a0,0,0,0,0,0,0,.84.84,0,0,0,1.09.19.69.69,0,0,0,.36-.78.29.29,0,0,0-.05-.2l-.26-.37-1.53-2.22-.79-1.15h0l0-.06h0l0,0a.34.34,0,0,0-.19-.14.87.87,0,0,0-.91,0A.67.67,0,0,0,404.29,415.9Zm8.65-5.72,4.66,2.9a.55.55,0,0,0,.77-.17l.18-.28a.54.54,0,0,0,0-.61.33.33,0,0,0-.13-.13l0,0h0l-3.7-2.31-.93-.58h0l0,0-.18-.06a.54.54,0,0,0-.56.25l-.18.28A.54.54,0,0,0,412.94,410.18Zm-13.06.41h0l2.89,3.63h0v0a.87.87,0,0,0,1.11.13.68.68,0,0,0,.31-.8.35.35,0,0,0-.06-.19l-.28-.34-1.76-2.21-.83-1.05h0l0,0h0l0,0h0l0,0a.34.34,0,0,0-.2-.13.87.87,0,0,0-.92,0,.66.66,0,0,0-.23,1Zm6.79.13,4.79,2.69a.56.56,0,0,0,.76-.2l.16-.29a.54.54,0,0,0,0-.61.33.33,0,0,0-.14-.12l0,0h0l0,0-.63-.35-1.7-1-2.39-1.35h0a.35.35,0,0,0-.18,0,.55.55,0,0,0-.55.27l-.17.28A.57.57,0,0,0,406.67,410.72ZM417,413.09a.36.36,0,0,0-.17-.07.56.56,0,0,0-.58.22l-.19.26a.54.54,0,0,0,.13.77l4.46,3.17a.57.57,0,0,0,.78-.13l.2-.27a.56.56,0,0,0,0-.61.43.43,0,0,0-.13-.14l0,0-.06,0-1.27-.9-.91-.64-2.2-1.56Zm7.88,23.14a.31.31,0,0,0-.15-.1.57.57,0,0,0-.61.06l-.25.21a.53.53,0,0,0-.07.77l3.52,4.11a.56.56,0,0,0,.78.07l.25-.21a.53.53,0,0,0,.17-.58.38.38,0,0,0-.08-.17l-1.78-2.08-1.74-2h0l0,0h0Zm-21.13-7.11h0l2.05,3.88h0v0a.82.82,0,0,0,1,.29.72.72,0,0,0,.46-.74.34.34,0,0,0,0-.2l0,0h0v0h0l0,0h0l-.87-1.64L406,430l-.8-1.51a.28.28,0,0,0-.17-.15.82.82,0,0,0-.88-.12.69.69,0,0,0-.41.93Zm.14-2.61a.28.28,0,0,0,0-.2v0h0v0h0l0,0h0l-1-1.63-.43-.7-.86-1.39a.38.38,0,0,0-.18-.15.88.88,0,0,0-.9-.07.65.65,0,0,0-.35.93h0l2.32,3.75h0v0a.83.83,0,0,0,1.07.24A.67.67,0,0,0,403.91,426.51Zm22.5,8.79-3.66-3.8-.08-.07a.36.36,0,0,0-.15-.1.55.55,0,0,0-.61.1l-.24.22a.55.55,0,0,0,0,.78l3.77,3.9a.55.55,0,0,0,.78,0l.24-.22a.56.56,0,0,0,.14-.6.36.36,0,0,0-.1-.15l0,0,0,0h0Zm-1-9a.39.39,0,0,0-.16-.1.56.56,0,0,0-.61.11l-.23.23a.55.55,0,0,0,0,.78l3.84,3.84a.56.56,0,0,0,.79,0l.23-.23a.54.54,0,0,0,.13-.6.36.36,0,0,0-.1-.15l0-.05,0,0-1.87-1.87-1.9-1.9Zm-18.33,9h0l1.79,4v0a.81.81,0,0,0,1,.34.75.75,0,0,0,.5-.72.38.38,0,0,0,0-.21v0h0v0h0l0,0h0l-.76-1.69-.38-.84-.63-1.42a.35.35,0,0,0-.16-.16.82.82,0,0,0-.87-.16.71.71,0,0,0-.47.91Zm7.24-17.52a.51.51,0,0,0-.17-.07.56.56,0,0,0-.58.21l-.2.26a.55.55,0,0,0,.12.77l4.42,3.21a.57.57,0,0,0,.78-.11l.2-.27a.54.54,0,0,0,0-.61.31.31,0,0,0-.12-.14l0,0-.06,0-2.15-1.56-2.19-1.59,0,0h0Zm-2.2,9.76h0l2,4h0v0a.79.79,0,0,0,1,.29.73.73,0,0,0,.47-.75.39.39,0,0,0,0-.21l-.2-.39L414.15,428l-.54-1.05h0l0-.06h0v0a.35.35,0,0,0-.17-.15.83.83,0,0,0-.89-.12.7.7,0,0,0-.42.94Zm3.53-11,0,0h0l-.68-.43-3.9-2.51h0l-.06,0a.36.36,0,0,0-.17-.07.56.56,0,0,0-.57.24L410,414a.54.54,0,0,0,.16.76l4.61,3a.57.57,0,0,0,.77-.16l.19-.28a.56.56,0,0,0,0-.61A.4.4,0,0,0,415.63,416.54Zm-4.91,9h0a.82.82,0,0,0,1.07.24.71.71,0,0,0,.42-.76.45.45,0,0,0,0-.2l0,0-1.6-2.71-.68-1.13h0l0,0h0v0h0l0,0a.34.34,0,0,0-.18-.15.87.87,0,0,0-.9-.07.69.69,0,0,0-.36.95h0l2.32,3.9Zm12.48,6a.55.55,0,0,0,.78,0l.23-.23a.57.57,0,0,0,0-.76l0,0h0l0,0h0l-4-3.64h0l0-.05a.51.51,0,0,0-.16-.09.58.58,0,0,0-.6.14l-.23.24a.54.54,0,0,0,0,.78Zm1.73,23.57-.25-1.14h0v-.07h0v0a.32.32,0,0,0-.12-.18.76.76,0,0,0-.83-.27.78.78,0,0,0-.63.87h0v0l1,4.32h0v0a.73.73,0,0,0,.93.47.83.83,0,0,0,.63-.67.3.3,0,0,0,0-.21l-.15-.67Zm-1.19-3.82a.38.38,0,0,0,0-.21l-.1-.33-.78-2.72-.34-1.18h0l0-.06h0v0a.34.34,0,0,0-.13-.18.8.8,0,0,0-.85-.23.77.77,0,0,0-.58.89h0l1.22,4.26v0s0,0,0,0a.76.76,0,0,0,1,.43A.81.81,0,0,0,423.74,451.24Zm6-4.8.27-.19a.55.55,0,0,0,.2-.57.36.36,0,0,0-.07-.17l0,0h0l0-.06-2.91-3.84-.32-.43a.44.44,0,0,0-.15-.12.56.56,0,0,0-.61,0l-.26.19a.55.55,0,0,0-.12.77l3.26,4.3A.55.55,0,0,0,429.73,446.44Zm-8.28-2.15a.34.34,0,0,0,0-.2v0l-1.06-2.95-.42-1.18h0l0-.07h0v0a.35.35,0,0,0-.15-.17.82.82,0,0,0-.86-.19.74.74,0,0,0-.53.91h0l1.5,4.2v0h0a.76.76,0,0,0,1,.39A.79.79,0,0,0,421.45,444.29Zm9.88-6.46-1.69-2.11h0l0,0a.44.44,0,0,0-.15-.12.57.57,0,0,0-.61.05l-.26.2a.54.54,0,0,0-.09.77l3.39,4.21a.54.54,0,0,0,.77.09l.26-.2a.53.53,0,0,0,.19-.57A.38.38,0,0,0,433,440l0,0h0l0-.05h0Zm.14,12.86,0,0,0,0L430,448.46l-1.47-2.22h0l0-.05a.4.4,0,0,0-.13-.13.54.54,0,0,0-.61,0l-.28.17a.56.56,0,0,0-.16.76l3,4.48a.57.57,0,0,0,.77.16l.27-.18a.55.55,0,0,0,.24-.56.58.58,0,0,0-.06-.17ZM427.66,431l0,0a.31.31,0,0,0-.15-.1.55.55,0,0,0-.61.08l-.25.21a.54.54,0,0,0,0,.78l3.61,4a.57.57,0,0,0,.79,0l.24-.21a.54.54,0,0,0,.16-.59.37.37,0,0,0-.09-.16l0,0h0l0,0-1.76-2Zm-9.2,35.59v0h0v0h0l-.31-1.84-.13-.77-.27-1.65a.45.45,0,0,0-.11-.19.75.75,0,0,0-.8-.31.78.78,0,0,0-.67.83h0l.72,4.29v0h0a.71.71,0,0,0,.89.52.8.8,0,0,0,.65-.63.39.39,0,0,0,0-.21v0Zm12.94-26,0-.06v0a.53.53,0,0,0-.14-.12.56.56,0,0,0-.62,0l-.27.19a.55.55,0,0,0-.13.76l3.15,4.38a.58.58,0,0,0,.78.13l.26-.19a.54.54,0,0,0,.22-.57.37.37,0,0,0-.07-.16l-1.59-2.22Zm-28.56-.19.33-.32a.77.77,0,0,0,0-1.1l-5.31-5.56a.79.79,0,0,0-1.11,0l-.34.32a.79.79,0,0,0,0,1.11l5.31,5.55A.79.79,0,0,0,402.84,440.38Zm3.28,7.39.37-.3a.78.78,0,0,0,.1-1.1l-4.87-5.95a.77.77,0,0,0-1.1-.11l-.37.29a.79.79,0,0,0-.1,1.11l4.87,6A.79.79,0,0,0,406.12,447.77Zm10.94,11.77a.31.31,0,0,0,0-.21v0h0v0h0v0h0l-.42-1.82-.18-.78-.37-1.6a.34.34,0,0,0-.13-.18.76.76,0,0,0-.82-.28.77.77,0,0,0-.62.86h0l1,4.24h0v0a.73.73,0,0,0,.92.48A.79.79,0,0,0,417.06,459.54Zm-25.38-47.12h0l2.86,3.45,0,0a0,0,0,0,0,0,0,.87.87,0,0,0,1.11.13.64.64,0,0,0,.3-.77.37.37,0,0,0-.07-.2l0,0h0l0,0h0l0,0h0l-1.19-1.44-.56-.68L393,411.57a.37.37,0,0,0-.21-.12.88.88,0,0,0-.91,0,.64.64,0,0,0-.22,1Zm2.92,14,.28-.37a.78.78,0,0,0-.15-1.09l-6.09-4.66a.78.78,0,0,0-1.1.15l-.28.36a.79.79,0,0,0,.15,1.1l6.09,4.66A.79.79,0,0,0,394.6,426.41Zm4.39,6.84.31-.34a.79.79,0,0,0-.06-1.11l-5.72-5.12a.78.78,0,0,0-1.1.06l-.31.35a.78.78,0,0,0,.06,1.1l5.72,5.12A.77.77,0,0,0,399,433.25Zm16.26,19.2a.3.3,0,0,0,0-.21v0h0v0h0v0h0l-.55-1.81-.2-.66L414,448a.31.31,0,0,0-.13-.17.78.78,0,0,0-.84-.24.73.73,0,0,0-.57.87h0l1.26,4.16v0a.74.74,0,0,0,.95.43A.76.76,0,0,0,415.25,452.45ZM413,445.58a.34.34,0,0,0,0-.2v0h0v0h0l0,0h0l-.63-1.71-.33-.89-.54-1.45a.35.35,0,0,0-.15-.17.8.8,0,0,0-.86-.2.73.73,0,0,0-.52.9h0l1.52,4.08v0a.77.77,0,0,0,1,.38A.73.73,0,0,0,413,445.58Zm-5.28,9.63a.78.78,0,0,0-1.07-.27l-.4.23a.78.78,0,0,0-.27,1.07l3.87,6.58a.77.77,0,0,0,1.06.27l.4-.23a.78.78,0,0,0,.28-1.07Zm1.09.15.39-.26a.8.8,0,0,0,.19-1.1L405,447.69a.78.78,0,0,0-1.09-.2l-.38.27a.79.79,0,0,0-.2,1.09l4.41,6.32A.78.78,0,0,0,408.83,455.36Zm23.47-37.83a34.71,34.71,0,1,0-31.34,56,36.22,36.22,0,0,0,4.15.24,34.71,34.71,0,0,0,27.19-56.2Zm4.06,25.2a30.77,30.77,0,0,1-1.33,6.08l-.76-1.19-1.46-2.26,0,0a.37.37,0,0,0-.13-.12.54.54,0,0,0-.61,0l-.28.17a.55.55,0,0,0-.17.76l2.83,4.38-.12.28-.27-.47-.05-.09a.41.41,0,0,0-.12-.14.56.56,0,0,0-.61,0l-.29.16a.53.53,0,0,0-.21.74l.85,1.47a31,31,0,0,1-1.52,2.84l-.92-1.58-1.31-2.26h0l0-.06h0v0a.44.44,0,0,0-.13-.14.56.56,0,0,0-.61,0l-.28.16a.54.54,0,0,0-.21.74l2.65,4.57-.21.32-.14-.28h0l0-.06h0v0a.41.41,0,0,0-.12-.14.57.57,0,0,0-.6-.08l-.29.15a.53.53,0,0,0-.25.71l.51,1a32.64,32.64,0,0,1-3.56,3.89l-.13-.86h0v-.06h0v0a.29.29,0,0,0-.11-.19.74.74,0,0,0-.81-.31.81.81,0,0,0-.68.85h0l.29,1.85-.51.43a31.51,31.51,0,0,1-11.47,5.73l-3.22-6.6a.77.77,0,0,0-1-.35l-.41.2a.78.78,0,0,0-.36,1l3,6.18a32,32,0,0,1-5.45.57l-1.39-3.38a.75.75,0,0,0-1-.43l-.41.17a.74.74,0,0,0-.4,1l1.08,2.62c-.74,0-1.48-.08-2.23-.17a31.56,31.56,0,0,1-22.28-49.21l5.6,3.86a.76.76,0,0,0-.73.25l-.28.35a.75.75,0,0,0,.11,1.07l5.49,4.47a.74.74,0,0,0-.71.21l-.32.32a.76.76,0,0,0,0,1.08l5.08,4.88a.76.76,0,0,0-.72.15l-.34.3a.76.76,0,0,0-.06,1.08l4.67,5.29a.79.79,0,0,0-.74.09l-.36.27a.76.76,0,0,0-.15,1.07l4.29,5.78a.75.75,0,0,0-.79,0l-.39.23a.76.76,0,0,0-.23,1.05l3.91,6.32a.74.74,0,0,0-.9-.19l-.4.2a.76.76,0,0,0-.32,1L404.2,467a.76.76,0,0,0,1,.34l.4-.2a.74.74,0,0,0,.32-1l-3.39-6.66a.76.76,0,0,0,1,.2l.38-.24a.76.76,0,0,0,.23-1.05l-3.83-6.18a.77.77,0,0,0,.93,0l.36-.26a.77.77,0,0,0,.15-1.08L397.45,445a.77.77,0,0,0,.88-.09l.34-.29a.75.75,0,0,0,.06-1.08L394,438.17a.74.74,0,0,0,.85-.16l.32-.32a.76.76,0,0,0,0-1.08l-5.22-5a.77.77,0,0,0,.85-.23L391,431a.77.77,0,0,0-.12-1.08l-5.66-4.61a.74.74,0,0,0,.84-.28l.26-.37a.75.75,0,0,0-.21-1.06l-5.92-4.08.08-.1a.78.78,0,0,0,.6-.36l.22-.39a.63.63,0,0,0,.09-.35c.56-.64,1.15-1.26,1.76-1.86l5.62,3.64a.79.79,0,0,0,1.08-.23l.25-.39a.79.79,0,0,0-.23-1.08l-5.17-3.35c.33-.28.66-.56,1-.83a32,32,0,0,1,5-3.2.92.92,0,0,0,.77-.12.7.7,0,0,0,.28-.39,31,31,0,0,1,6.1-2.18l.67.74h0v0a.87.87,0,0,0,1.12.07.65.65,0,0,0,.26-.8.36.36,0,0,0-.08-.19l-.08-.08-.14-.15a32.39,32.39,0,0,1,4.83-.48l3.59,1.77a.55.55,0,0,0,.75-.25l.15-.29a.56.56,0,0,0-.08-.61.53.53,0,0,0-.14-.12l-.81-.4,1.06.1a32.11,32.11,0,0,1,5.38,1.12l.1.05a.48.48,0,0,0,.28.06,31.54,31.54,0,0,1,21.84,33.8Z"/></svg>